<?xml version="1.0" standalone="no"?>
<!DOCTYPE svg PUBLIC "-//W3C//DTD SVG 20010904//EN"
 "http://www.w3.org/TR/2001/REC-SVG-20010904/DTD/svg10.dtd">
<svg version="1.0" xmlns="http://www.w3.org/2000/svg"
 width="912.000000pt" height="912.000000pt" viewBox="0 0 912.000000 912.000000"
 preserveAspectRatio="xMidYMid meet">
<metadata>
Created by potrace 1.11, written by Peter Selinger 2001-2013
</metadata>
<g transform="translate(0.000000,912.000000) scale(0.100000,-0.100000)"
fill="#000000" stroke="none">
<path d="M4319 9106 c-3 -3 -92 -13 -198 -21 -107 -9 -221 -22 -255 -30 -33
-8 -74 -15 -90 -15 -67 0 -411 -87 -616 -156 -58 -19 -122 -39 -144 -45 -21
-5 -48 -16 -60 -24 -11 -8 -27 -15 -35 -15 -7 0 -32 -9 -55 -19 -23 -10 -70
-31 -106 -46 -189 -79 -481 -236 -675 -364 -55 -36 -102 -68 -105 -71 -3 -3
-25 -19 -49 -35 -130 -87 -377 -293 -539 -449 -76 -73 -337 -362 -372 -412 -8
-12 -53 -73 -100 -135 -172 -229 -298 -436 -430 -709 -39 -80 -79 -162 -90
-182 -11 -20 -20 -43 -20 -50 -1 -7 -9 -31 -20 -53 -11 -22 -19 -46 -20 -53 0
-8 -7 -26 -15 -40 -16 -30 -51 -126 -65 -183 -5 -19 -16 -49 -25 -65 -8 -16
-15 -39 -15 -51 0 -12 -5 -34 -11 -50 -23 -57 -83 -307 -100 -418 -6 -38 -17
-99 -25 -135 -64 -297 -64 -1115 0 -1410 8 -36 19 -96 25 -135 17 -111 77
-361 100 -418 6 -16 11 -38 11 -50 0 -12 7 -35 15 -51 9 -16 20 -46 25 -65 14
-57 49 -153 65 -183 8 -14 15 -32 15 -40 1 -7 9 -31 20 -53 11 -22 19 -44 20
-48 1 -23 148 -324 222 -454 32 -56 58 -105 58 -108 0 -3 8 -18 19 -33 10 -15
58 -88 107 -162 49 -74 92 -139 96 -145 5 -5 31 -39 58 -75 27 -36 56 -72 63
-80 7 -8 53 -64 103 -125 106 -131 373 -400 499 -505 50 -41 92 -77 95 -80 5
-7 200 -155 236 -180 104 -72 176 -120 180 -120 2 0 26 -15 52 -33 97 -68 377
-218 552 -295 25 -11 71 -32 104 -46 32 -14 63 -26 69 -26 5 0 28 -8 51 -19
44 -20 64 -27 201 -72 172 -56 318 -97 383 -109 26 -4 76 -15 112 -23 92 -23
279 -53 460 -74 188 -22 749 -26 866 -6 38 7 122 17 186 23 64 5 128 14 142
20 14 5 61 14 105 19 44 6 102 17 128 25 26 7 71 18 98 24 150 31 469 130 572
177 17 8 36 15 43 15 7 0 24 7 38 14 15 8 79 37 142 65 63 27 147 66 185 87
125 65 179 95 220 119 22 13 47 27 55 31 8 4 53 33 100 63 47 31 92 60 101 66
187 116 490 366 703 581 192 193 445 502 551 673 15 23 85 132 105 161 9 14
20 32 24 40 4 8 18 33 31 55 14 22 34 58 45 80 11 22 24 47 28 55 27 47 87
167 112 225 19 44 46 105 79 176 12 25 21 52 21 59 0 6 7 24 15 38 16 30 51
126 65 183 5 19 16 49 25 65 8 16 15 38 15 49 0 11 9 47 20 80 64 197 118 475
157 815 25 215 25 655 0 870 -29 255 -61 455 -82 519 -8 25 -15 56 -15 70 0
24 -22 106 -61 226 -10 33 -19 69 -19 80 0 11 -7 33 -15 49 -9 16 -20 46 -25
65 -5 20 -21 68 -35 106 -15 39 -33 88 -41 110 -8 22 -22 56 -31 75 -15 33
-28 63 -73 165 -32 71 -80 168 -125 250 -24 44 -49 89 -54 100 -6 11 -22 38
-36 60 -13 22 -32 53 -41 69 -9 16 -32 51 -50 78 -19 26 -34 52 -34 57 0 5 -6
14 -14 20 -8 7 -36 44 -62 84 -45 67 -214 282 -287 365 -213 241 -495 502
-708 655 -13 9 -63 45 -111 80 -48 34 -113 78 -143 97 -31 19 -67 42 -80 50
-13 8 -66 39 -117 68 -51 29 -100 57 -108 62 -8 6 -26 15 -40 20 -14 6 -32 14
-40 20 -21 14 -121 61 -275 130 -107 48 -271 111 -355 136 -25 7 -65 20 -90
28 -109 35 -159 50 -215 63 -193 44 -236 54 -295 63 -36 6 -99 17 -140 25
-133 26 -419 48 -680 52 -140 3 -258 2 -261 -1z m676 -795 c152 -22 225 -34
290 -48 39 -9 99 -22 135 -29 98 -19 294 -77 405 -119 39 -14 84 -30 100 -35
17 -6 44 -16 60 -23 17 -8 50 -23 75 -34 71 -32 331 -162 375 -188 22 -13 51
-30 65 -37 28 -14 231 -150 270 -180 14 -10 63 -49 110 -85 106 -81 218 -181
335 -298 207 -206 345 -376 507 -624 82 -126 210 -362 279 -516 10 -22 27 -61
38 -86 12 -25 21 -51 21 -57 0 -7 9 -29 20 -49 11 -21 20 -44 20 -51 0 -8 6
-28 14 -45 12 -29 43 -127 82 -262 21 -73 43 -177 60 -280 8 -49 19 -103 24
-120 17 -53 35 -353 35 -575 0 -233 -16 -466 -39 -588 -8 -42 -20 -102 -25
-132 -17 -95 -33 -163 -53 -235 -39 -138 -71 -241 -84 -272 -8 -17 -14 -37
-14 -45 0 -7 -9 -30 -20 -51 -11 -20 -20 -42 -20 -48 0 -7 -9 -33 -21 -58 -11
-25 -29 -64 -38 -86 -64 -146 -204 -405 -268 -497 -18 -26 -33 -50 -33 -53 0
-3 -20 -33 -45 -68 -25 -34 -53 -73 -62 -86 -246 -343 -613 -688 -991 -933
-107 -70 -304 -183 -362 -208 -14 -6 -61 -28 -105 -49 -76 -37 -244 -104 -350
-141 -27 -10 -66 -23 -85 -30 -19 -7 -60 -18 -90 -26 -30 -7 -84 -21 -120 -30
-36 -8 -85 -22 -110 -29 -25 -8 -81 -18 -125 -24 -44 -6 -96 -15 -115 -21 -19
-5 -91 -14 -160 -20 -69 -5 -189 -14 -268 -21 -144 -11 -166 -10 -562 21 -69
5 -154 16 -190 24 -36 8 -92 19 -125 25 -150 25 -347 79 -490 132 -28 11 -57
19 -65 19 -9 0 -32 9 -53 20 -20 11 -42 20 -48 20 -5 0 -36 12 -67 26 -31 14
-77 35 -102 46 -61 28 -142 67 -160 79 -8 5 -26 14 -40 19 -14 6 -43 21 -65
35 -22 13 -53 31 -70 40 -30 16 -46 25 -100 59 -83 53 -118 76 -205 141 -52
38 -106 77 -120 86 -103 66 -447 402 -587 574 -107 131 -186 239 -238 324 -5
9 -26 41 -46 71 -20 30 -55 89 -78 130 -23 41 -46 82 -51 90 -59 102 -230 489
-230 521 0 6 -6 25 -14 42 -35 79 -114 381 -137 522 -6 33 -17 97 -25 141 -43
240 -43 858 0 1098 8 44 20 108 25 141 17 100 50 244 61 265 5 10 10 29 10 42
1 13 8 41 16 63 9 22 20 58 25 80 5 22 16 54 24 72 8 17 15 36 15 42 0 32 172
423 230 521 5 8 31 53 57 100 73 131 220 345 334 487 96 120 379 412 479 495
130 108 238 189 365 271 173 114 173 114 210 133 17 8 48 26 70 39 95 55 327
165 348 165 9 0 19 4 22 10 3 5 27 16 53 24 26 8 61 21 77 30 17 9 38 16 48
16 10 0 28 5 40 12 12 6 51 20 87 30 36 11 97 28 135 39 39 11 99 26 135 33
36 7 81 18 100 24 19 6 76 16 125 22 50 6 108 16 129 21 98 26 765 33 931 10z
m-4273 -4744 c11 -17 10 -47 -2 -47 -5 0 -10 11 -10 25 0 22 -4 25 -37 25 -29
0 -34 3 -23 10 18 12 61 4 72 -13z m-232 -32 c0 -8 -4 -15 -10 -15 -5 0 -10 7
-10 15 0 8 5 15 10 15 6 0 10 -7 10 -15z m0 -81 c0 -8 -4 -12 -10 -9 -5 3 -10
13 -10 21 0 8 5 12 10 9 6 -3 10 -13 10 -21z m116 -1 c-10 -10 -19 5 -10 18 6
11 8 11 12 0 2 -7 1 -15 -2 -18z m-41 -33 c-3 -5 -15 -10 -26 -10 -10 0 -19 5
-19 10 0 6 12 10 26 10 14 0 23 -4 19 -10z m7805 -80 c0 -5 -4 -10 -10 -10 -5
0 -10 5 -10 10 0 6 5 10 10 10 6 0 10 -4 10 -10z m190 -6 c0 -2 -9 -4 -20 -4
-11 0 -20 4 -20 9 0 5 9 7 20 4 11 -3 20 -7 20 -9z m-7900 -74 c0 -5 -7 -10
-16 -10 -8 0 -12 5 -9 10 3 6 10 10 16 10 5 0 9 -4 9 -10z m7937 -32 c-3 -7
-5 -2 -5 12 0 14 2 19 5 13 2 -7 2 -19 0 -25z m-7987 -8 c0 -5 -5 -10 -11 -10
-5 0 -7 5 -4 10 3 6 8 10 11 10 2 0 4 -4 4 -10z m7760 0 c0 -5 -4 -10 -10 -10
-5 0 -10 5 -10 10 0 6 5 10 10 10 6 0 10 -4 10 -10z m-7520 -57 c0 -22 -2 -25
-10 -13 -13 20 -13 40 0 40 6 0 10 -12 10 -27z m7715 17 c-3 -5 -15 -10 -26
-10 -11 0 -17 5 -14 10 3 6 15 10 26 10 11 0 17 -4 14 -10z m-265 -40 c0 -5
-7 -10 -15 -10 -8 0 -15 5 -15 10 0 6 7 10 15 10 8 0 15 -4 15 -10z m110 -40
c0 -5 -4 -10 -10 -10 -5 0 -10 5 -10 10 0 6 5 10 10 10 6 0 10 -4 10 -10z
m-7800 -36 c0 -8 -4 -12 -10 -9 -5 3 -10 10 -10 16 0 5 5 9 10 9 6 0 10 -7 10
-16z m7854 -70 c18 -26 18 -26 -5 -22 -16 2 -25 11 -27 26 -4 29 8 28 32 -4z
m-7734 -54 c0 -5 -4 -10 -10 -10 -5 0 -10 5 -10 10 0 6 5 10 10 10 6 0 10 -4
10 -10z m7490 0 c0 -5 -7 -10 -15 -10 -8 0 -15 5 -15 10 0 6 7 10 15 10 8 0
15 -4 15 -10z m70 0 c0 -5 -4 -10 -10 -10 -5 0 -10 5 -10 10 0 6 5 10 10 10 6
0 10 -4 10 -10z m-7600 -57 c0 -20 -3 -24 -11 -16 -7 7 -9 19 -6 27 10 24 17
19 17 -11z m7640 1 c0 -8 -4 -12 -10 -9 -5 3 -10 13 -10 21 0 8 5 12 10 9 6
-3 10 -13 10 -21z m-163 -16 c-3 -7 -5 -2 -5 12 0 14 2 19 5 13 2 -7 2 -19 0
-25z m-7437 -48 c0 -5 -4 -10 -10 -10 -5 0 -10 5 -10 10 0 6 5 10 10 10 6 0
10 -4 10 -10z m280 -40 c0 -5 -7 -10 -15 -10 -8 0 -15 5 -15 10 0 6 7 10 15
10 8 0 15 -4 15 -10z m7374 4 c9 -3 16 -16 16 -28 0 -12 -3 -16 -8 -10 -4 6
-15 13 -25 17 -10 4 -15 11 -12 17 7 12 8 12 29 4z m-334 -164 c0 -5 -4 -10
-10 -10 -5 0 -10 5 -10 10 0 6 5 10 10 10 6 0 10 -4 10 -10z m-6953 -36 c1 -5
-2 -16 -7 -24 -8 -13 -12 -13 -27 3 -16 15 -16 19 -3 27 17 11 32 8 37 -6z
m6913 -123 c0 -5 -20 -11 -45 -13 -31 -2 -45 1 -45 9 0 9 16 13 45 13 25 0 45
-4 45 -9z m40 -47 c0 -14 -4 -23 -10 -19 -5 3 -10 15 -10 26 0 10 5 19 10 19
6 0 10 -12 10 -26z m-7030 -35 c0 -5 -7 -9 -15 -9 -15 0 -20 12 -9 23 8 8 24
-1 24 -14z m105 -79 c-3 -5 -11 -10 -16 -10 -6 0 -7 5 -4 10 3 6 11 10 16 10
6 0 7 -4 4 -10z m-44 -53 c-8 -8 -11 -7 -11 4 0 20 13 34 18 19 3 -7 -1 -17
-7 -23z m7028 24 c11 -7 10 -11 -6 -20 -22 -11 -33 -6 -33 16 0 15 18 17 39 4z
m-283 -16 c-25 -19 -36 -19 -36 0 0 10 10 15 28 15 26 -1 26 -1 8 -15z m64 -5
c7 -14 21 -20 45 -20 18 0 37 -4 40 -10 4 -6 -10 -10 -35 -10 -27 0 -43 -5
-46 -15 -9 -21 -24 -8 -24 20 0 13 -4 27 -10 30 -15 9 -12 25 5 25 8 0 19 -9
25 -20z m-6800 -96 c0 -8 -4 -14 -10 -14 -5 0 -10 9 -10 21 0 11 5 17 10 14 6
-3 10 -13 10 -21z m240 -9 c0 -8 -4 -15 -10 -15 -5 0 -10 7 -10 15 0 8 5 15
10 15 6 0 10 -7 10 -15z m-190 -45 c0 -5 -7 -10 -15 -10 -8 0 -15 5 -15 10 0
6 7 10 15 10 8 0 15 -4 15 -10z m150 0 c0 -5 -4 -10 -10 -10 -5 0 -10 5 -10
10 0 6 5 10 10 10 6 0 10 -4 10 -10z m6720 0 c0 -5 -4 -10 -10 -10 -5 0 -10 5
-10 10 0 6 5 10 10 10 6 0 10 -4 10 -10z m-6520 -45 c0 -8 -4 -17 -10 -20 -6
-4 -10 5 -10 20 0 15 4 24 10 20 6 -3 10 -12 10 -20z m-80 -4 c0 -11 -4 -23
-10 -26 -6 -4 -10 5 -10 19 0 14 5 26 10 26 6 0 10 -9 10 -19z m-6 -136 c3 -8
1 -15 -4 -15 -6 0 -10 7 -10 15 0 8 2 15 4 15 2 0 6 -7 10 -15z m-114 -15 c0
-5 -4 -10 -10 -10 -5 0 -10 5 -10 10 0 6 5 10 10 10 6 0 10 -4 10 -10z m360
-120 c0 -5 -5 -10 -11 -10 -5 0 -7 5 -4 10 3 6 8 10 11 10 2 0 4 -4 4 -10z
m-40 -34 c0 -3 -4 -8 -10 -11 -5 -3 -10 -1 -10 4 0 6 5 11 10 11 6 0 10 -2 10
-4z m-40 -40 c0 -3 -4 -8 -10 -11 -5 -3 -10 -1 -10 4 0 6 5 11 10 11 6 0 10
-2 10 -4z m5779 -6 c4 0 15 -16 24 -35 12 -26 23 -35 41 -35 14 0 28 -5 31
-11 5 -7 -9 -9 -42 -7 -48 3 -48 3 -51 41 -3 32 -7 37 -28 37 -15 0 -23 4 -19
11 4 6 14 8 22 5 8 -3 18 -6 22 -6z m-63 -47 c-10 -10 -19 5 -10 18 6 11 8 11
12 0 2 -7 1 -15 -2 -18z m-5756 1 c0 -8 -5 -12 -10 -9 -6 4 -8 11 -5 16 9 14
15 11 15 -7z m120 6 c0 -5 -5 -10 -11 -10 -5 0 -7 5 -4 10 3 6 8 10 11 10 2 0
4 -4 4 -10z m5840 -81 c0 -11 -4 -17 -10 -14 -5 3 -10 13 -10 21 0 8 5 14 10
14 6 0 10 -9 10 -21z m-5960 1 c0 -5 -2 -10 -4 -10 -3 0 -8 5 -11 10 -3 6 -1
10 4 10 6 0 11 -4 11 -10z m5956 -87 c-10 -10 -19 5 -10 18 6 11 8 11 12 0 2
-7 1 -15 -2 -18z m-5436 -78 c0 -8 -7 -15 -15 -15 -8 0 -15 -9 -15 -20 0 -22
29 -27 47 -9 9 9 13 2 19 -25 4 -24 2 -42 -5 -49 -8 -8 -11 -8 -11 1 0 7 -11
18 -25 24 -14 6 -25 17 -25 23 0 14 -31 25 -67 25 -19 0 -23 -6 -23 -29 0 -38
25 -59 51 -43 24 15 29 15 29 -2 0 -7 9 -16 20 -19 25 -6 27 -27 3 -27 -10 0
-34 -3 -54 -6 -32 -5 -38 -3 -44 15 -7 24 -35 29 -35 6 0 -8 -7 -15 -15 -15
-20 0 -19 27 0 38 24 13 31 75 11 95 -33 32 -9 52 25 21 22 -20 99 -11 99 12
0 8 7 14 15 14 8 0 15 -7 15 -15z m4910 -34 c0 -5 -7 -11 -15 -15 -22 -8 -18
-43 8 -61 l22 -16 -30 3 c-26 3 -30 8 -33 36 -2 19 -1 40 2 48 6 15 46 20 46
5z m117 -87 c-3 -3 -12 -4 -19 -1 -8 3 -5 6 6 6 11 1 17 -2 13 -5z m-4867 -39
c0 -16 -45 -21 -54 -6 -8 12 4 21 31 21 14 0 23 -6 23 -15z m4912 -42 l-10
-38 -1 50 c-1 36 2 46 10 38 8 -8 8 -22 1 -50z m-4848 -5 c9 -12 16 -31 16
-41 0 -15 -5 -14 -35 10 -19 15 -35 34 -35 41 0 20 38 14 54 -10z m4421 12 c3
-5 1 -10 -4 -10 -6 0 -11 5 -11 10 0 6 2 10 4 10 3 0 8 -4 11 -10z m195 -32
c0 -5 -4 -8 -10 -8 -5 0 -10 10 -10 23 0 18 2 19 10 7 5 -8 10 -18 10 -22z
m-4460 -88 c12 -8 11 -10 -7 -10 -13 0 -23 5 -23 10 0 13 11 13 30 0z m-60
-40 c0 -5 -4 -10 -10 -10 -5 0 -10 5 -10 10 0 6 5 10 10 10 6 0 10 -4 10 -10z
m4155 0 c3 -5 -3 -10 -14 -10 -12 0 -21 5 -21 10 0 6 6 10 14 10 8 0 18 -4 21
-10z m-87 -7 c-15 -2 -29 -12 -31 -21 -3 -12 -5 -10 -6 6 -1 19 4 22 32 21 29
-2 29 -2 5 -6z m-3904 -22 c8 -12 -3 -41 -15 -41 -5 0 -9 11 -9 25 0 25 14 34
24 16z m4356 -6 c0 -8 -7 -15 -15 -15 -16 0 -20 12 -8 23 11 12 23 8 23 -8z
m-320 -5 c0 -5 -4 -10 -10 -10 -5 0 -10 5 -10 10 0 6 5 10 10 10 6 0 10 -4 10
-10z m120 0 c0 -5 -4 -10 -10 -10 -5 0 -10 5 -10 10 0 6 5 10 10 10 6 0 10 -4
10 -10z m-4320 -60 c9 -16 8 -20 -5 -20 -8 0 -15 9 -15 20 0 11 2 20 5 20 2 0
9 -9 15 -20z m276 -19 c-4 -6 -19 -11 -34 -11 l-27 1 24 20 c24 20 51 13 37
-10z m-156 -6 c0 -15 -38 -40 -48 -31 -3 3 0 6 6 6 7 0 11 3 11 8 -3 20 2 32
16 32 8 0 15 -7 15 -15z m3640 -33 c0 -13 -12 -22 -22 -16 -10 6 -1 24 13 24
5 0 9 -4 9 -8z m120 -2 c0 -5 -7 -10 -15 -10 -8 0 -15 5 -15 10 0 6 7 10 15
10 8 0 15 -4 15 -10z m-3385 -40 c3 -5 -3 -10 -15 -10 -12 0 -18 5 -15 10 3 6
10 10 15 10 5 0 12 -4 15 -10z m50 0 c3 -5 -1 -10 -10 -10 -9 0 -13 5 -10 10
3 6 8 10 10 10 2 0 7 -4 10 -10z m3375 -10 c0 -5 -4 -10 -10 -10 -5 0 -10 5
-10 10 0 6 5 10 10 10 6 0 10 -4 10 -10z m-3482 -75 c0 -31 -4 -53 -9 -49 -11
7 -12 104 0 104 4 0 9 -25 9 -55z m157 45 c3 -5 1 -10 -4 -10 -6 0 -11 5 -11
10 0 6 2 10 4 10 3 0 8 -4 11 -10z m3580 0 c-3 -5 -13 -10 -21 -10 -8 0 -14 5
-14 10 0 6 9 10 21 10 11 0 17 -4 14 -10z m-3446 -34 c9 -11 5 -15 -24 -18
-37 -4 -43 0 -23 20 16 16 33 15 47 -2z m2751 -57 c0 -11 -4 -17 -10 -14 -5 3
-10 13 -10 21 0 8 5 14 10 14 6 0 10 -9 10 -21z m440 11 c0 -5 -5 -10 -11 -10
-5 0 -7 5 -4 10 3 6 8 10 11 10 2 0 4 -4 4 -10z m-3425 -40 c3 -5 -3 -10 -14
-10 -12 0 -21 5 -21 10 0 6 6 10 14 10 8 0 18 -4 21 -10z m3105 -4 c0 -8 -4
-18 -10 -21 -5 -3 -10 3 -10 14 0 12 5 21 10 21 6 0 10 -6 10 -14z m290 5 c0
-12 -28 -22 -34 -12 -3 5 -3 11 1 15 9 9 33 7 33 -3z m-414 -48 c-10 -10 -19
5 -10 18 6 11 8 11 12 0 2 -7 1 -15 -2 -18z m372 15 c-6 -18 -28 -21 -28 -4 0
9 7 16 16 16 9 0 14 -5 12 -12z m-2689 -44 c4 -4 -46 -54 -53 -54 -10 0 -13
46 -4 57 9 12 43 10 57 -3z m2281 -4 c0 -5 -7 -10 -15 -10 -7 0 -18 -7 -23
-16 -11 -20 -27 -1 -18 21 6 17 56 21 56 5z m-2041 -36 c1 -1 0 -8 -4 -14 -5
-8 -28 -11 -66 -8 -62 5 -75 10 -64 28 4 7 27 9 68 4 34 -4 64 -8 66 -10z
m2246 -4 c-3 -5 -10 -10 -16 -10 -5 0 -9 5 -9 10 0 6 7 10 16 10 8 0 12 -4 9
-10z m-2692 -36 c-4 -13 -86 -11 -90 1 -2 7 15 10 44 9 27 -1 47 -6 46 -10z
m687 -17 c0 -33 -11 -40 -27 -17 -10 14 -26 20 -49 20 -21 0 -33 4 -29 10 3 6
28 10 56 10 45 0 49 -2 49 -23z m1115 13 c4 -6 -6 -10 -22 -10 -22 0 -25 2
-13 10 19 12 27 12 35 0z m-201 -46 c4 -15 2 -32 -3 -37 -8 -8 -11 -6 -11 6 0
11 -11 20 -30 24 -38 7 -39 20 -2 26 15 2 30 5 33 6 4 0 10 -11 13 -25z
m-1451 1 c-4 -15 -36 -12 -41 3 -3 9 3 13 19 10 13 -1 23 -7 22 -13z m417 -7
c0 -18 -2 -20 -9 -8 -6 8 -7 18 -5 22 9 14 14 9 14 -14z m280 13 c0 -5 -9 -13
-20 -16 -11 -3 -20 -13 -20 -21 0 -8 -4 -14 -10 -14 -5 0 -10 14 -10 30 0 27
3 30 30 30 17 0 30 -4 30 -9z m200 0 c0 -5 -22 -9 -50 -9 -27 0 -50 4 -50 9 0
5 23 9 50 9 28 0 50 -4 50 -9z m278 -28 c4 -38 -9 -43 -23 -10 -8 18 -19 23
-57 25 -27 2 -48 8 -48 13 0 6 26 9 63 7 62 -3 62 -3 65 -35z m177 27 c-3 -5
-15 -10 -26 -10 -11 0 -17 5 -14 10 3 6 15 10 26 10 11 0 17 -4 14 -10z m225
0 c0 -5 -4 -10 -10 -10 -5 0 -10 5 -10 10 0 6 5 10 10 10 6 0 10 -4 10 -10z
m120 0 c0 -5 -4 -10 -10 -10 -5 0 -10 5 -10 10 0 6 5 10 10 10 6 0 10 -4 10
-10z m-924 -67 c-11 -11 -19 6 -11 24 8 17 8 17 12 0 3 -10 2 -21 -1 -24z
m522 -13 c0 -27 -4 -50 -9 -50 -5 0 -9 23 -9 50 0 28 4 50 9 50 5 0 9 -22 9
-50z m-868 4 c0 -26 -17 -33 -26 -9 -8 20 3 48 16 40 5 -3 10 -17 10 -31z
m590 16 c0 -11 -2 -20 -4 -20 -2 0 -6 9 -9 20 -3 11 -1 20 4 20 5 0 9 -9 9
-20z m-240 -47 c0 -20 -3 -24 -11 -16 -7 7 -9 19 -6 27 10 24 17 19 17 -11z
m237 -5 c-3 -8 -6 -5 -6 6 -1 11 2 17 5 13 3 -3 4 -12 1 -19z m443 -2 c0 -24
-16 -43 -27 -32 -8 8 6 56 17 56 6 0 10 -11 10 -24z m-280 -21 l0 -35 -70 0
c-38 0 -70 4 -70 10 0 5 20 9 45 8 46 -1 75 14 75 38 0 8 5 14 10 14 6 0 10
-16 10 -35z m510 19 c0 -8 -5 -12 -10 -9 -6 4 -8 11 -5 16 9 14 15 11 15 -7z
m-1218 -6 c-9 -9 -15 -9 -24 0 -9 9 -7 12 12 12 19 0 21 -3 12 -12z m418 -36
c0 -4 -18 -7 -40 -7 -22 0 -40 3 -40 7 0 5 18 8 40 8 22 0 40 -3 40 -8z m472
-4 c-17 -8 -26 -8 -34 0 -9 9 -4 12 23 11 32 0 33 -1 11 -11z"/>
<path d="M4440 7880 c-78 -12 -135 -37 -265 -116 -22 -13 -53 -31 -70 -39 -16
-9 -61 -35 -100 -59 -260 -162 -521 -245 -840 -266 -249 -17 -381 -43 -470
-92 -11 -7 -31 -17 -44 -24 -46 -24 -147 -123 -189 -184 -23 -33 -42 -63 -42
-66 0 -3 -12 -31 -26 -62 -14 -31 -35 -77 -46 -102 -11 -25 -26 -57 -34 -72
-8 -14 -14 -31 -14 -38 0 -22 -110 -237 -163 -317 -98 -149 -187 -251 -318
-363 -35 -30 -69 -59 -75 -65 -6 -5 -40 -35 -75 -67 -171 -151 -216 -214 -269
-380 -18 -56 -21 -85 -18 -180 2 -62 12 -144 21 -183 10 -38 22 -88 28 -110 5
-22 16 -74 24 -115 8 -41 20 -91 27 -110 18 -50 18 -540 0 -590 -7 -19 -19
-69 -27 -110 -8 -41 -19 -93 -24 -115 -6 -22 -18 -71 -28 -110 -9 -38 -19
-120 -21 -182 -3 -98 0 -122 22 -190 57 -179 79 -207 357 -452 159 -141 282
-273 357 -386 68 -101 182 -319 182 -345 0 -7 6 -24 14 -38 8 -15 23 -47 34
-72 11 -25 32 -71 46 -102 14 -31 26 -59 26 -62 0 -13 74 -113 114 -154 124
-130 271 -186 531 -203 136 -8 274 -25 395 -49 72 -14 262 -75 306 -98 10 -6
48 -24 84 -42 36 -17 82 -41 102 -53 20 -12 82 -49 138 -82 56 -33 118 -70
138 -82 20 -12 48 -27 62 -33 14 -5 36 -16 50 -24 14 -8 71 -20 127 -27 193
-24 326 12 538 146 39 25 84 52 100 61 17 8 48 26 70 39 65 40 244 125 261
125 9 0 28 7 42 15 24 13 70 26 182 55 66 16 265 40 410 50 136 8 286 36 313
58 7 5 23 13 35 17 31 9 96 53 152 103 49 43 112 130 146 202 12 25 31 65 43
90 11 25 21 49 21 53 0 5 12 34 26 65 14 31 35 77 46 102 90 201 184 345 330
500 31 33 187 176 268 245 161 138 218 215 271 365 20 55 23 85 23 190 0 89
-5 139 -17 175 -9 28 -21 75 -26 105 -5 30 -16 87 -25 125 -51 217 -51 216
-51 420 0 204 0 203 51 420 9 39 20 95 25 125 5 30 17 78 26 105 13 37 17 83
16 180 -1 140 -13 190 -78 315 -34 67 -185 218 -384 384 -170 142 -320 350
-429 596 -11 25 -32 71 -46 102 -14 31 -26 60 -26 65 0 4 -10 28 -21 53 -12
25 -31 65 -43 90 -61 133 -175 244 -318 313 -60 29 -99 39 -220 56 -80 12
-175 21 -210 22 -108 0 -350 39 -398 64 -14 7 -43 16 -64 19 -22 4 -49 14 -60
22 -11 8 -26 14 -34 14 -13 0 -113 42 -142 60 -8 6 -28 16 -45 25 -16 8 -46
25 -66 37 -29 19 -138 83 -254 151 -11 6 -32 19 -47 29 -15 10 -32 18 -38 18
-6 0 -31 9 -55 20 -51 23 -233 34 -325 20z m30 -90 l25 -7 -25 -6 c-52 -14
-110 -12 -110 2 0 17 68 24 110 11z m299 -5 c11 -11 -12 -18 -59 -16 -62 1
-86 12 -50 23 24 7 100 2 109 -7z m-449 -45 c0 -5 -9 -10 -20 -10 -11 0 -20 5
-20 10 0 6 9 10 20 10 11 0 20 -4 20 -10z m530 0 c0 -5 -6 -10 -14 -10 -8 0
-18 5 -21 10 -3 6 3 10 14 10 12 0 21 -4 21 -10z m-151 -46 c57 -17 153 -60
206 -94 17 -10 63 -38 104 -62 40 -24 90 -53 110 -65 232 -137 527 -223 816
-238 66 -3 167 -15 225 -25 142 -26 206 -59 316 -162 61 -58 98 -119 159 -268
15 -36 37 -85 48 -110 11 -25 26 -58 32 -75 47 -111 145 -274 229 -380 48 -61
226 -238 321 -320 192 -165 242 -232 291 -390 22 -71 24 -200 4 -260 -7 -22
-19 -69 -26 -105 -7 -36 -18 -87 -24 -115 -51 -218 -51 -223 -51 -450 0 -225
4 -263 52 -450 5 -22 16 -74 24 -115 7 -42 19 -89 26 -105 19 -49 17 -192 -5
-260 -39 -128 -101 -228 -181 -295 -98 -83 -294 -261 -342 -311 -82 -86 -225
-286 -258 -361 -9 -18 -19 -40 -25 -48 -5 -8 -18 -37 -30 -65 -12 -27 -30 -68
-40 -90 -9 -22 -30 -69 -45 -105 -75 -181 -127 -255 -229 -329 -114 -81 -202
-108 -406 -121 -167 -11 -387 -43 -445 -64 -22 -8 -49 -15 -60 -16 -11 0 -38
-9 -60 -20 -22 -11 -48 -19 -57 -20 -9 0 -29 -7 -45 -15 -15 -8 -57 -28 -93
-46 -36 -17 -83 -42 -105 -55 -22 -13 -54 -31 -72 -41 -17 -10 -62 -36 -99
-58 -219 -131 -246 -140 -399 -140 -102 0 -130 4 -185 24 -36 13 -72 29 -80
36 -8 6 -26 17 -40 23 -14 7 -37 20 -52 30 -89 58 -325 190 -379 210 -263 104
-340 119 -784 162 -110 10 -211 34 -236 56 -8 8 -21 14 -27 14 -27 0 -177 139
-209 194 -17 29 -55 111 -88 191 -7 17 -22 50 -33 75 -11 25 -34 78 -52 118
-76 176 -199 353 -350 502 -91 90 -113 110 -250 229 -146 128 -192 197 -230
346 -22 85 -26 166 -10 211 5 16 17 65 25 109 8 44 19 98 24 120 58 232 56
217 56 480 0 263 2 248 -56 480 -5 22 -16 74 -24 115 -8 41 -19 91 -25 110
-23 80 1 231 56 349 28 58 145 182 289 306 231 197 399 413 495 637 18 40 41
93 52 118 11 25 26 59 33 75 15 38 48 112 64 145 29 61 46 84 106 143 127 126
251 165 585 186 80 6 157 14 170 19 14 5 48 12 75 16 28 4 76 16 108 27 31 10
63 19 69 19 12 0 91 28 153 55 79 34 217 110 350 192 11 7 34 19 50 28 17 9
51 29 77 45 25 15 75 36 109 44 35 9 65 19 68 21 11 12 179 4 230 -11z m-529
-34 c0 -5 -4 -10 -10 -10 -5 0 -10 5 -10 10 0 6 5 10 10 10 6 0 10 -4 10 -10z
m800 0 c0 -5 -2 -10 -4 -10 -3 0 -8 5 -11 10 -3 6 -1 10 4 10 6 0 11 -4 11
-10z m75 -40 c3 -5 1 -10 -4 -10 -6 0 -11 5 -11 10 0 6 2 10 4 10 3 0 8 -4 11
-10z m-1075 -80 c0 -5 -4 -10 -10 -10 -5 0 -10 5 -10 10 0 6 5 10 10 10 6 0
10 -4 10 -10z m-80 -40 c0 -5 -4 -10 -10 -10 -5 0 -10 5 -10 10 0 6 5 10 10
10 6 0 10 -4 10 -10z m1360 0 c0 -5 -4 -10 -10 -10 -5 0 -10 5 -10 10 0 6 5
10 10 10 6 0 10 -4 10 -10z m-1430 -40 c0 -5 -9 -10 -20 -10 -11 0 -20 5 -20
10 0 6 9 10 20 10 11 0 20 -4 20 -10z m1525 0 c3 -5 -3 -10 -14 -10 -12 0 -21
5 -21 10 0 6 6 10 14 10 8 0 18 -4 21 -10z m-1625 -40 c0 -5 -11 -10 -25 -10
-14 0 -25 5 -25 10 0 6 11 10 25 10 14 0 25 -4 25 -10z m1735 0 c4 -6 -5 -10
-19 -10 -14 0 -26 5 -26 10 0 6 9 10 19 10 11 0 23 -4 26 -10z m-1855 -40 c0
-5 -13 -10 -30 -10 -16 0 -30 5 -30 10 0 6 14 10 30 10 17 0 30 -4 30 -10z
m1985 0 c4 -6 -7 -10 -24 -10 -17 0 -31 5 -31 10 0 6 11 10 24 10 14 0 28 -4
31 -10z m-2150 -40 c-3 -5 -26 -10 -51 -10 -24 0 -44 5 -44 10 0 6 23 10 51
10 31 0 48 -4 44 -10z m2355 0 c0 -5 -20 -10 -44 -10 -25 0 -48 5 -51 10 -4 6
13 10 44 10 28 0 51 -4 51 -10z m-2725 -40 c4 -6 -23 -10 -75 -10 -52 0 -79 4
-75 10 3 6 37 10 75 10 38 0 72 -4 75 -10z m3150 0 c4 -6 -23 -10 -75 -10 -52
0 -79 4 -75 10 3 6 37 10 75 10 38 0 72 -4 75 -10z m-3375 -40 c0 -14 -61 -23
-73 -11 -7 7 -3 13 13 19 26 10 60 5 60 -8z m3520 -5 c1 -15 -23 -17 -56 -4
-26 10 -27 12 -9 19 24 8 64 -1 65 -15z m-3605 -25 c4 -6 -10 -17 -29 -25 -20
-9 -36 -20 -36 -25 0 -6 -6 -10 -12 -10 -20 0 -148 -125 -148 -143 0 -10 -4
-17 -10 -17 -18 0 -10 39 10 50 11 6 20 17 20 25 0 14 35 52 82 87 13 10 37
29 53 43 32 26 60 32 70 15z m3683 -15 c17 -14 33 -25 37 -25 16 0 107 -99
100 -110 -4 -7 -22 5 -48 30 -22 23 -53 48 -69 56 -15 8 -28 19 -28 24 0 6 -8
10 -19 10 -21 0 -45 23 -34 33 12 13 31 7 61 -18z m172 -172 c-1 -27 -1 -27
-15 -9 -19 25 -19 36 0 36 10 0 15 -10 15 -27z m40 -69 c0 -8 -4 -14 -10 -14
-5 0 -10 9 -10 21 0 11 5 17 10 14 6 -3 10 -13 10 -21z m-4164 -21 c-11 -11
-19 6 -11 24 8 17 8 17 12 0 3 -10 2 -21 -1 -24z m-36 -87 c0 -3 -4 -8 -10
-11 -5 -3 -10 -1 -10 4 0 6 5 11 10 11 6 0 10 -2 10 -4z m4275 -76 c3 -5 1
-10 -4 -10 -6 0 -11 5 -11 10 0 6 2 10 4 10 3 0 8 -4 11 -10z m-4315 -10 c0
-5 -4 -10 -10 -10 -5 0 -10 5 -10 10 0 6 5 10 10 10 6 0 10 -4 10 -10z m4360
-80 c0 -5 -4 -10 -10 -10 -5 0 -10 5 -10 10 0 6 5 10 10 10 6 0 10 -4 10 -10z
m35 -80 c3 -5 1 -10 -4 -10 -6 0 -11 5 -11 10 0 6 2 10 4 10 3 0 8 -4 11 -10z
m-4475 -30 c0 -5 -5 -10 -11 -10 -5 0 -7 5 -4 10 3 6 8 10 11 10 2 0 4 -4 4
-10z m4560 -130 c0 -5 -4 -10 -10 -10 -5 0 -10 5 -10 10 0 6 5 10 10 10 6 0
10 -4 10 -10z m-4680 -80 c0 -5 -4 -10 -10 -10 -5 0 -10 5 -10 10 0 6 5 10 10
10 6 0 10 -4 10 -10z m4720 0 c0 -5 -2 -10 -4 -10 -3 0 -8 5 -11 10 -3 6 -1
10 4 10 6 0 11 -4 11 -10z m40 -40 c0 -5 -4 -10 -10 -10 -5 0 -10 5 -10 10 0
6 5 10 10 10 6 0 10 -4 10 -10z m-4840 -74 c0 -3 -4 -8 -10 -11 -5 -3 -10 -1
-10 4 0 6 5 11 10 11 6 0 10 -2 10 -4z m-40 -46 c0 -5 -4 -10 -10 -10 -5 0
-10 5 -10 10 0 6 5 10 10 10 6 0 10 -4 10 -10z m4960 0 c0 -5 -2 -10 -4 -10
-3 0 -8 5 -11 10 -3 6 -1 10 4 10 6 0 11 -4 11 -10z m-5000 -40 c0 -5 -4 -10
-10 -10 -5 0 -10 5 -10 10 0 6 5 10 10 10 6 0 10 -4 10 -10z m5040 0 c0 -5 -4
-10 -10 -10 -5 0 -10 5 -10 10 0 6 5 10 10 10 6 0 10 -4 10 -10z m-5080 -40
c0 -5 -5 -10 -11 -10 -5 0 -7 5 -4 10 3 6 8 10 11 10 2 0 4 -4 4 -10z m5120 0
c0 -5 -4 -10 -10 -10 -5 0 -10 5 -10 10 0 6 5 10 10 10 6 0 10 -4 10 -10z
m-5160 -40 c0 -5 -5 -10 -11 -10 -5 0 -7 5 -4 10 3 6 8 10 11 10 2 0 4 -4 4
-10z m5200 0 c0 -5 -4 -10 -10 -10 -5 0 -10 5 -10 10 0 6 5 10 10 10 6 0 10
-4 10 -10z m-5240 -40 c0 -5 -4 -10 -10 -10 -5 0 -10 5 -10 10 0 6 5 10 10 10
6 0 10 -4 10 -10z m5280 0 c0 -5 -4 -10 -10 -10 -5 0 -10 5 -10 10 0 6 5 10
10 10 6 0 10 -4 10 -10z m-5320 -34 c0 -3 -4 -8 -10 -11 -5 -3 -10 -1 -10 4 0
6 5 11 10 11 6 0 10 -2 10 -4z m-240 -206 c0 -5 -5 -10 -11 -10 -5 0 -7 5 -4
10 3 6 8 10 11 10 2 0 4 -4 4 -10z m5840 0 c0 -5 -4 -10 -10 -10 -5 0 -10 5
-10 10 0 6 5 10 10 10 6 0 10 -4 10 -10z m-5889 -63 c-8 -8 -11 -7 -11 4 0 20
13 34 18 19 3 -7 -1 -17 -7 -23z m5929 18 c0 -8 -4 -15 -10 -15 -5 0 -10 7
-10 15 0 8 5 15 10 15 6 0 10 -7 10 -15z m43 -52 c9 -47 -13 -43 -28 5 -4 16
-2 22 8 22 8 0 17 -12 20 -27z m-6003 -13 c0 -20 -5 -30 -15 -30 -18 0 -19 14
-5 41 15 27 20 24 20 -11z m6048 -80 c-2 -14 -7 -25 -12 -25 -13 0 -27 56 -20
75 9 23 36 -19 32 -50z m-6082 8 c-7 -35 -22 -56 -32 -45 -13 12 6 77 23 77
12 0 14 -7 9 -32z m6118 -84 c9 -43 -2 -103 -14 -83 -12 19 -23 106 -15 119
10 17 22 3 29 -36z m-6159 -53 c-9 -88 -20 -106 -28 -46 -9 64 5 131 24 119 7
-4 9 -28 4 -73z m-5 -238 c0 -18 -4 -33 -10 -33 -5 0 -10 21 -10 48 0 34 3 43
10 32 5 -8 10 -30 10 -47z m6160 -33 c0 -16 -4 -30 -10 -30 -11 0 -14 43 -3
53 11 12 13 8 13 -23z m-6120 -150 c0 -16 -4 -30 -10 -30 -11 0 -14 43 -3 53
11 12 13 8 13 -23z m6080 -35 c0 -14 -4 -25 -10 -25 -5 0 -10 11 -10 25 0 14
5 25 10 25 6 0 10 -11 10 -25z m-6040 -155 c0 -16 -4 -32 -10 -35 -6 -4 -10
10 -10 35 0 25 4 39 10 35 6 -3 10 -19 10 -35z m6000 -35 c0 -25 -4 -45 -10
-45 -11 0 -14 73 -3 83 11 12 13 8 13 -38z m0 -560 c0 -25 -4 -45 -10 -45 -11
0 -14 73 -3 83 11 12 13 8 13 -38z m-6000 -34 c0 -17 -4 -33 -10 -36 -6 -4
-10 8 -10 29 0 20 5 36 10 36 6 0 10 -13 10 -29z m6040 -156 c0 -14 -4 -25
-10 -25 -5 0 -10 11 -10 25 0 14 5 25 10 25 6 0 10 -11 10 -25z m-6080 -25 c0
-16 -4 -30 -10 -30 -11 0 -14 43 -3 53 11 12 13 8 13 -23z m6120 -161 c0 -17
-4 -28 -10 -24 -5 3 -10 17 -10 31 0 13 5 24 10 24 6 0 10 -14 10 -31z m-6160
-33 c0 -19 -4 -38 -10 -41 -6 -4 -10 10 -10 34 0 23 5 41 10 41 6 0 10 -15 10
-34z m2 -239 c2 -39 -1 -66 -7 -66 -17 -1 -26 51 -19 109 8 70 22 47 26 -43z
m6162 -52 c-5 -20 -13 -37 -19 -38 -15 -3 -18 47 -4 95 l12 43 10 -32 c6 -19
6 -46 1 -68z m-6120 -74 c12 -43 -8 -67 -24 -27 -14 37 -13 69 2 64 7 -3 17
-19 22 -37z m6086 -2 c0 -25 -17 -59 -30 -59 -13 0 -13 32 0 65 11 29 30 25
30 -6z m-6050 -63 c0 -8 3 -21 6 -30 4 -11 1 -16 -10 -16 -9 0 -16 6 -16 14 0
8 -3 21 -6 30 -4 11 -1 16 10 16 9 0 16 -6 16 -14z m5996 -43 c-5 -12 -10 -13
-17 -6 -8 8 -7 18 2 34 12 21 14 22 17 6 2 -10 1 -25 -2 -34z m-5956 -28 c0
-8 -4 -15 -10 -15 -5 0 -10 7 -10 15 0 8 5 15 10 15 6 0 10 -7 10 -15z m5919
-11 c-14 -18 -24 -11 -15 11 3 9 11 13 16 10 8 -5 7 -11 -1 -21z m-5879 -34
c0 -5 -4 -10 -10 -10 -5 0 -10 5 -10 10 0 6 5 10 10 10 6 0 10 -4 10 -10z
m5840 0 c0 -5 -4 -10 -10 -10 -5 0 -10 5 -10 10 0 6 5 10 10 10 6 0 10 -4 10
-10z m-5800 -40 c0 -5 -2 -10 -4 -10 -3 0 -8 5 -11 10 -3 6 -1 10 4 10 6 0 11
-4 11 -10z m5760 0 c0 -5 -4 -10 -10 -10 -5 0 -10 5 -10 10 0 6 5 10 10 10 6
0 10 -4 10 -10z m-40 -40 c0 -5 -4 -10 -10 -10 -5 0 -10 5 -10 10 0 6 5 10 10
10 6 0 10 -4 10 -10z m-40 -34 c0 -3 -4 -8 -10 -11 -5 -3 -10 -1 -10 4 0 6 5
11 10 11 6 0 10 -2 10 -4z m-5400 -166 c0 -5 -4 -10 -10 -10 -5 0 -10 5 -10
10 0 6 5 10 10 10 6 0 10 -4 10 -10z m40 -40 c0 -5 -4 -10 -10 -10 -5 0 -10 5
-10 10 0 6 5 10 10 10 6 0 10 -4 10 -10z m40 -40 c0 -5 -4 -10 -10 -10 -5 0
-10 5 -10 10 0 6 5 10 10 10 6 0 10 -4 10 -10z m4960 -120 c0 -5 -4 -10 -10
-10 -5 0 -10 5 -10 10 0 6 5 10 10 10 6 0 10 -4 10 -10z m-4840 -40 c0 -5 -4
-10 -10 -10 -5 0 -10 5 -10 10 0 6 5 10 10 10 6 0 10 -4 10 -10z m4800 0 c0
-5 -4 -10 -10 -10 -5 0 -10 5 -10 10 0 6 5 10 10 10 6 0 10 -4 10 -10z m-4765
-40 c3 -5 1 -10 -4 -10 -6 0 -11 5 -11 10 0 6 2 10 4 10 3 0 8 -4 11 -10z m45
-80 c0 -5 -4 -10 -10 -10 -5 0 -10 5 -10 10 0 6 5 10 10 10 6 0 10 -4 10 -10z
m4640 1 c0 -6 -4 -13 -10 -16 -5 -3 -10 1 -10 9 0 9 5 16 10 16 6 0 10 -4 10
-9z m-40 -81 c0 -5 -4 -10 -10 -10 -5 0 -10 5 -10 10 0 6 5 10 10 10 6 0 10
-4 10 -10z m-4520 -76 c0 -8 -5 -12 -10 -9 -6 4 -8 11 -5 16 9 14 15 11 15 -7z
m4480 -4 c0 -5 -4 -10 -10 -10 -5 0 -10 5 -10 10 0 6 5 10 10 10 6 0 10 -4 10
-10z m-4440 -80 c0 -5 -4 -10 -10 -10 -5 0 -10 5 -10 10 0 6 5 10 10 10 6 0
10 -4 10 -10z m4400 0 c0 -5 -5 -10 -11 -10 -5 0 -7 5 -4 10 3 6 8 10 11 10 2
0 4 -4 4 -10z m-4360 -86 c0 -8 -4 -12 -10 -9 -5 3 -10 10 -10 16 0 5 5 9 10
9 6 0 10 -7 10 -16z m4280 -114 c0 -5 -4 -10 -10 -10 -5 0 -10 5 -10 10 0 6 5
10 10 10 6 0 10 -4 10 -10z m-4200 -75 c0 -8 -4 -15 -10 -15 -5 0 -10 7 -10
15 0 8 5 15 10 15 6 0 10 -7 10 -15z m4160 -10 c0 -8 -4 -15 -10 -15 -5 0 -10
7 -10 15 0 8 5 15 10 15 6 0 10 -7 10 -15z m-4110 -77 c0 -4 -7 -8 -15 -8 -10
0 -15 10 -15 28 1 26 1 26 15 8 8 -11 15 -23 15 -28z m4070 7 c0 -9 -7 -18
-15 -21 -8 -4 -15 -10 -15 -16 0 -13 -97 -108 -110 -108 -6 0 -13 -6 -16 -14
-3 -8 -18 -18 -34 -21 -16 -3 -31 -13 -34 -21 -6 -15 -76 -20 -76 -5 0 5 18
12 40 16 25 4 40 12 40 21 0 8 6 14 14 14 8 0 28 11 44 25 17 14 35 25 41 25
6 0 11 6 11 14 0 8 9 17 19 21 11 3 23 15 26 26 4 10 12 19 20 19 7 0 15 9 18
20 6 23 27 27 27 5z m-4033 -45 c3 -11 12 -20 19 -20 8 0 17 -6 20 -14 3 -8
32 -31 65 -51 32 -21 59 -41 59 -45 0 -5 18 -11 41 -15 24 -4 38 -12 36 -18
-6 -16 -59 -9 -73 9 -6 7 -19 14 -28 14 -9 0 -25 9 -36 20 -11 11 -24 20 -29
20 -6 0 -16 8 -23 18 -7 10 -21 21 -30 25 -10 3 -18 13 -18 22 0 8 -7 15 -15
15 -8 0 -15 2 -15 4 0 2 -3 11 -6 20 -4 11 -1 16 11 16 9 0 19 -9 22 -20z
m388 -200 c4 -6 -15 -10 -49 -10 -30 0 -58 5 -61 10 -4 6 15 10 49 10 30 0 58
-4 61 -10z m3310 0 c-3 -5 -31 -10 -61 -10 -34 0 -53 4 -49 10 3 6 31 10 61
10 34 0 53 -4 49 -10z m-2905 -40 c0 -6 -28 -10 -64 -10 -36 0 -68 5 -71 10
-4 6 20 10 64 10 41 0 71 -4 71 -10z m2520 0 c0 -6 -30 -10 -70 -10 -40 0 -70
4 -70 10 0 6 30 10 70 10 40 0 70 -4 70 -10z m-2325 -40 c4 -6 -8 -10 -29 -10
-20 0 -36 5 -36 10 0 6 13 10 29 10 17 0 33 -4 36 -10z m2065 0 c0 -5 -16 -10
-36 -10 -21 0 -33 4 -29 10 3 6 19 10 36 10 16 0 29 -4 29 -10z m-1940 -40 c0
-5 -11 -10 -25 -10 -14 0 -25 5 -25 10 0 6 11 10 25 10 14 0 25 -4 25 -10z
m1795 0 c-3 -5 -17 -10 -31 -10 -13 0 -24 5 -24 10 0 6 14 10 31 10 17 0 28
-4 24 -10z m-1690 -40 c4 -6 -5 -10 -19 -10 -14 0 -26 5 -26 10 0 6 9 10 19
10 11 0 23 -4 26 -10z m1575 0 c0 -5 -9 -10 -21 -10 -11 0 -17 5 -14 10 3 6
13 10 21 10 8 0 14 -4 14 -10z m-1490 -40 c0 -5 -4 -10 -10 -10 -5 0 -10 5
-10 10 0 6 5 10 10 10 6 0 10 -4 10 -10z m1400 0 c0 -5 -4 -10 -10 -10 -5 0
-10 5 -10 10 0 6 5 10 10 10 6 0 10 -4 10 -10z m-1270 -80 c0 -5 -2 -10 -4
-10 -3 0 -8 5 -11 10 -3 6 -1 10 4 10 6 0 11 -4 11 -10z m1120 0 c0 -5 -4 -10
-10 -10 -5 0 -10 5 -10 10 0 6 5 10 10 10 6 0 10 -4 10 -10z m-1045 -40 c3 -5
1 -10 -4 -10 -6 0 -11 5 -11 10 0 6 2 10 4 10 3 0 8 -4 11 -10z m845 -80 c0
-5 -4 -10 -10 -10 -5 0 -10 5 -10 10 0 6 5 10 10 10 6 0 10 -4 10 -10z m-635
-40 c3 -5 -1 -10 -9 -10 -9 0 -16 5 -16 10 0 6 4 10 9 10 6 0 13 -4 16 -10z
m555 0 c0 -5 -4 -10 -10 -10 -5 0 -10 5 -10 10 0 6 5 10 10 10 6 0 10 -4 10
-10z m-425 -40 c4 -6 -12 -10 -39 -10 -25 0 -46 5 -46 10 0 6 18 10 39 10 22
0 43 -4 46 -10z m365 1 c0 -5 -8 -11 -17 -13 -28 -6 -73 3 -67 13 7 12 84 12
84 0z m-167 -28 c57 -9 25 -23 -55 -23 -80 0 -119 11 -73 21 41 9 83 10 128 2z"/>
<path d="M4769 7082 c-80 -29 -125 -80 -160 -179 -16 -45 -22 -93 -26 -210 -6
-143 -5 -154 16 -195 27 -52 64 -92 111 -121 29 -18 50 -22 121 -22 78 0 90 3
135 30 40 25 50 37 52 63 3 25 -3 38 -28 61 -29 26 -36 28 -64 19 -100 -32
-104 -33 -141 -15 -51 25 -58 51 -50 202 8 145 22 187 76 218 44 25 64 22 125
-19 59 -40 81 -39 114 3 31 40 26 71 -20 114 -67 64 -169 84 -261 51z"/>
<path d="M4165 7083 c-99 -12 -162 -27 -186 -44 -24 -16 -26 -23 -19 -51 15
-63 36 -88 61 -73 17 11 46 -15 57 -52 6 -21 16 -76 21 -123 6 -47 18 -118 27
-158 19 -84 16 -97 -23 -107 -35 -9 -43 -20 -43 -71 0 -61 16 -77 76 -72 42 4
140 19 221 34 13 2 29 17 37 33 14 26 13 32 -7 72 -15 30 -27 43 -39 41 -50
-8 -72 39 -89 183 -5 47 -16 110 -24 141 -19 73 -12 101 31 119 32 13 34 17
34 62 0 27 -5 54 -12 61 -11 11 -57 13 -123 5z"/>
<path d="M5493 6935 c-20 -14 -54 -79 -205 -395 -38 -80 -75 -158 -83 -173
-26 -50 -20 -74 26 -98 67 -34 79 -25 145 106 39 78 63 115 74 115 9 0 38 -11
64 -24 27 -13 58 -27 71 -30 12 -3 30 -17 39 -31 16 -25 16 -28 -15 -93 -17
-37 -40 -83 -50 -103 -31 -61 -23 -86 39 -119 47 -24 66 -8 125 112 238 484
241 492 224 527 -14 30 -78 52 -105 35 -9 -6 -39 -55 -67 -110 -49 -94 -53
-99 -81 -96 -16 2 -43 12 -60 23 -17 10 -39 19 -48 19 -8 0 -29 12 -46 28
l-31 27 37 75 c63 130 66 137 62 156 -1 9 -23 28 -47 41 -52 27 -42 26 -68 8z"/>
<path d="M3420 6853 c-164 -74 -200 -98 -200 -132 0 -10 18 -54 39 -97 22 -44
69 -142 106 -219 109 -229 139 -287 152 -292 21 -8 81 7 99 24 22 23 13 71
-31 160 -39 79 -42 93 -20 93 8 0 15 -4 15 -10 0 -5 5 -10 12 -10 6 0 55 -29
108 -65 53 -36 108 -65 121 -65 29 0 87 34 95 55 9 22 -18 56 -65 85 -151 92
-166 111 -135 171 36 70 7 196 -58 255 -64 59 -166 79 -238 47z m133 -161 c16
-17 27 -39 27 -56 0 -50 -81 -104 -114 -77 -8 7 -24 31 -35 53 -23 47 -17 69
27 92 40 22 65 19 95 -12z"/>
<path d="M6283 6388 c-26 -24 -63 -59 -84 -78 -20 -19 -67 -64 -105 -100 -132
-125 -174 -196 -174 -296 0 -87 40 -157 120 -210 40 -26 52 -29 129 -29 78 0
91 3 142 32 77 45 379 331 379 359 0 24 -61 84 -85 84 -15 0 -55 -30 -117 -88
-160 -152 -232 -214 -264 -230 -46 -22 -98 -9 -129 32 -52 68 -27 120 121 256
57 52 123 113 147 135 74 68 79 93 29 148 -35 37 -55 34 -109 -15z"/>
<path d="M2693 6357 c-27 -15 -63 -60 -63 -79 0 -8 22 -57 49 -108 27 -52 84
-162 126 -245 156 -305 143 -285 180 -285 50 0 85 45 75 98 -4 21 -14 50 -23
63 -28 39 -21 67 31 119 64 65 81 68 147 31 30 -17 59 -31 65 -31 18 0 90 72
90 90 0 25 -68 69 -255 166 -38 20 -92 48 -120 63 -144 79 -248 131 -263 131
-9 -1 -27 -6 -39 -13z m254 -259 c18 -13 35 -29 38 -35 6 -17 -40 -47 -60 -40
-13 6 -45 67 -45 88 0 16 33 9 67 -13z"/>
<path d="M4378 5964 c-53 -7 -110 -20 -127 -28 -16 -9 -37 -16 -45 -16 -17 0
-173 -81 -220 -113 -49 -35 -184 -169 -209 -207 -12 -19 -30 -46 -40 -60 -9
-14 -24 -39 -32 -57 -8 -17 -19 -34 -24 -37 -5 -4 -12 -21 -16 -39 -4 -17 -13
-42 -21 -54 -19 -30 -42 -141 -60 -288 -8 -66 -19 -134 -24 -150 -6 -17 -14
-76 -20 -131 -5 -55 -14 -112 -19 -127 -6 -14 -15 -72 -21 -127 -5 -56 -14
-109 -19 -118 -5 -9 -14 -57 -20 -106 -7 -49 -16 -97 -21 -107 -5 -9 -14 -55
-19 -103 -6 -47 -15 -104 -22 -128 -19 -67 -15 -313 5 -367 9 -24 16 -52 16
-63 0 -25 44 -119 83 -176 37 -55 122 -139 162 -159 16 -9 35 -22 43 -29 7 -8
20 -14 29 -14 9 0 30 -8 47 -19 17 -10 66 -24 110 -31 97 -15 192 -1 251 38
50 33 115 102 115 122 0 9 7 26 16 38 11 17 15 40 12 88 -3 60 -1 65 19 70 11
3 32 0 45 -7 33 -18 297 -25 373 -9 136 28 132 29 114 -33 -16 -59 19 -152 80
-214 69 -70 73 -72 160 -90 72 -14 87 -14 163 0 189 35 351 165 435 347 50
108 58 156 58 340 0 116 -4 187 -13 209 -7 19 -17 74 -22 122 -6 49 -15 99
-20 111 -5 13 -16 64 -24 113 -8 50 -19 115 -25 145 -5 30 -15 89 -20 130 -17
120 -31 207 -51 330 -11 63 -24 147 -29 185 -13 96 -36 192 -57 234 -9 20 -26
56 -38 81 -43 90 -93 156 -195 258 -76 76 -131 114 -248 171 -34 17 -68 31
-75 31 -7 0 -26 7 -42 15 -37 20 -228 45 -326 44 -41 -1 -119 -7 -172 -15z
m487 -72 c116 -42 165 -64 165 -74 0 -4 6 -8 14 -8 8 0 28 -11 44 -25 17 -14
34 -25 39 -25 13 0 202 -197 214 -223 5 -12 25 -47 44 -77 19 -30 34 -61 35
-68 0 -7 8 -27 17 -45 9 -18 22 -66 30 -107 7 -41 17 -95 22 -120 13 -56 14
-410 2 -429 -13 -20 -146 -15 -222 9 -34 11 -71 20 -83 20 -11 1 -39 9 -61 20
-22 11 -48 19 -58 20 -10 0 -35 9 -55 19 -20 11 -63 32 -94 48 -89 44 -118 60
-137 77 -10 9 -21 16 -25 16 -5 0 -21 10 -36 23 -15 12 -40 31 -56 42 -90 62
-311 309 -368 411 -9 16 -25 43 -36 59 -18 28 -98 188 -142 282 -29 64 -22 82
42 113 139 68 210 80 450 75 162 -4 181 -6 255 -33z m-791 -170 c26 -51 38
-78 75 -162 25 -56 127 -224 174 -285 4 -5 21 -28 38 -49 24 -32 29 -46 23
-70 -3 -17 -13 -38 -20 -46 -8 -8 -37 -44 -65 -80 -52 -68 -194 -211 -243
-245 -16 -11 -41 -30 -56 -42 -15 -13 -32 -23 -38 -23 -5 0 -14 -6 -20 -13 -6
-6 -41 -27 -79 -46 -37 -18 -80 -39 -95 -47 -15 -8 -51 -16 -80 -17 l-53 -2 1
260 c0 276 11 383 46 470 24 57 73 160 91 190 58 95 219 254 267 264 3 0 18
-25 34 -57z m426 -654 c58 -55 137 -122 180 -151 120 -82 126 -86 210 -127
127 -62 180 -83 255 -102 22 -6 69 -19 105 -29 36 -10 98 -21 139 -24 109 -11
111 -14 110 -177 0 -73 -4 -153 -9 -178 -25 -123 -39 -178 -54 -205 -9 -16
-16 -38 -16 -47 0 -9 -5 -20 -11 -24 -6 -3 -19 -25 -30 -48 -44 -95 -158 -226
-255 -291 -32 -22 -65 -46 -72 -52 -7 -7 -19 -13 -26 -13 -7 0 -25 -9 -39 -20
-14 -11 -31 -20 -39 -20 -7 0 -26 -7 -43 -16 -79 -41 -313 -71 -434 -55 -110
14 -210 36 -247 56 -16 8 -35 15 -42 15 -10 0 -56 24 -137 73 -58 35 -225 190
-225 210 0 4 -8 15 -17 25 -26 27 -73 114 -118 217 -27 62 -47 180 -52 306
l-5 116 37 22 c21 12 59 26 86 32 26 6 53 17 60 25 6 8 17 14 25 14 17 0 112
52 188 102 100 67 262 224 331 323 30 43 76 95 84 95 3 0 31 -24 61 -52z
m1074 -495 c4 -32 11 -82 16 -110 6 -29 15 -79 21 -110 5 -32 15 -78 20 -103
6 -25 15 -72 20 -105 6 -33 17 -96 26 -140 20 -102 28 -298 14 -350 -33 -126
-42 -154 -63 -196 -46 -90 -130 -185 -201 -225 -125 -71 -212 -92 -332 -79
-60 6 -68 10 -125 63 -51 47 -64 66 -75 109 -23 87 5 150 85 194 19 11 53 31
75 44 22 13 47 27 55 31 52 25 248 220 271 269 5 11 25 45 44 75 19 30 34 61
35 68 0 7 7 27 16 45 9 17 23 56 30 87 7 30 17 73 23 95 6 22 11 99 11 171 0
140 8 224 21 224 4 0 10 -26 13 -57z m-1993 -148 c5 -101 15 -184 24 -211 8
-25 15 -57 15 -72 0 -15 8 -43 19 -62 10 -19 22 -50 25 -67 4 -18 12 -35 17
-39 5 -3 16 -20 24 -37 63 -136 235 -304 404 -395 66 -35 103 -69 123 -114 23
-51 23 -55 -6 -119 -28 -61 -58 -96 -113 -130 -34 -22 -49 -24 -148 -24 -109
0 -144 9 -225 56 -8 5 -28 16 -44 25 -36 20 -144 124 -162 156 -78 138 -98
219 -98 388 0 116 11 224 35 345 6 28 15 77 21 110 5 33 18 96 28 140 10 44
21 115 25 159 11 126 27 77 36 -109z"/>
<path d="M4550 4504 c0 -41 4 -63 10 -59 6 3 10 33 10 66 0 33 -4 59 -10 59
-6 0 -10 -29 -10 -66z"/>
<path d="M3813 4473 c-38 -7 -28 -33 13 -33 28 0 37 -5 41 -21 4 -15 11 -19
27 -15 11 3 94 6 184 6 101 0 162 4 162 10 0 6 -58 10 -154 10 -134 0 -156 2
-177 18 -27 22 -64 31 -96 25z"/>
<path d="M4275 4460 c-4 -6 7 -10 24 -10 17 0 31 5 31 10 0 6 -11 10 -24 10
-14 0 -28 -4 -31 -10z"/>
<path d="M4790 4460 c0 -5 14 -10 30 -10 17 0 30 5 30 10 0 6 -13 10 -30 10
-16 0 -30 -4 -30 -10z"/>
<path d="M5225 4450 c-18 -20 -29 -21 -172 -19 -141 3 -176 -1 -160 -17 3 -4
86 -6 184 -7 157 0 178 2 181 17 2 11 14 16 38 16 24 0 34 5 34 15 0 24 -82
20 -105 -5z"/>
<path d="M5340 4426 c0 -9 7 -16 16 -16 9 0 14 5 12 12 -6 18 -28 21 -28 4z"/>
<path d="M3750 4420 c0 -5 6 -10 14 -10 8 0 18 5 21 10 3 6 -3 10 -14 10 -12
0 -21 -4 -21 -10z"/>
<path d="M5270 4379 c0 -5 5 -7 10 -4 6 3 10 8 10 11 0 2 -4 4 -10 4 -5 0 -10
-5 -10 -11z"/>
<path d="M4518 4297 c-5 -10 -8 -71 -8 -135 0 -112 1 -117 25 -138 16 -14 34
-20 50 -16 27 5 25 22 -3 22 -42 1 -47 14 -52 152 -3 74 -8 125 -12 115z"/>
<path d="M4460 3780 c0 -6 45 -10 114 -10 66 0 117 4 121 10 4 6 -37 10 -114
10 -74 0 -121 -4 -121 -10z"/>
<path d="M6856 5713 c-27 -7 -65 -54 -66 -80 0 -47 -72 -53 -125 -11 -20 15
-29 17 -39 9 -34 -28 21 -102 90 -121 84 -24 206 23 233 89 11 25 10 35 -5 66
-9 20 -28 41 -41 46 -13 5 -25 8 -26 8 -1 -1 -10 -3 -21 -6z"/>
<path d="M2158 5653 c-20 -25 -38 -70 -38 -97 0 -29 28 -59 105 -116 33 -24
71 -54 83 -66 13 -13 50 -42 83 -66 58 -43 71 -64 46 -74 -7 -2 -102 0 -209 5
-108 5 -206 7 -217 4 -23 -6 -61 -80 -61 -118 0 -21 49 -59 120 -93 14 -7 57
-30 95 -51 144 -79 222 -121 310 -165 89 -46 90 -46 115 -28 26 20 40 63 31
100 -6 22 -51 50 -208 128 -123 60 -97 72 115 55 148 -12 156 -12 181 7 27 20
44 72 36 108 -4 19 -228 208 -261 221 -21 8 -17 21 9 25 21 3 54 -5 213 -51
39 -12 77 -21 85 -21 23 0 58 42 65 77 8 42 -9 70 -48 78 -18 3 -62 14 -98 24
-100 28 -149 41 -230 61 -137 34 -165 41 -211 56 -62 19 -93 18 -111 -3z"/>
<path d="M6864 5296 c-79 -37 -109 -83 -134 -206 -12 -57 -25 -111 -30 -120
-16 -29 -57 -33 -91 -10 -28 21 -29 23 -29 109 0 98 -5 107 -66 121 -32 7 -39
5 -60 -17 -26 -28 -39 -92 -32 -158 12 -101 93 -201 177 -217 139 -26 250 52
267 187 17 141 60 202 122 173 26 -13 27 -16 30 -106 3 -91 3 -92 33 -108 42
-21 78 -14 103 19 31 42 30 175 -3 234 -60 111 -175 151 -287 99z"/>
<path d="M2669 3704 c-7 -8 -14 -39 -17 -67 -3 -41 0 -56 12 -66 10 -9 20 -10
25 -5 15 16 44 123 38 139 -8 20 -41 19 -58 -1z"/>
<path d="M6407 3713 c-20 -5 -20 -6 5 -97 15 -53 24 -61 48 -46 28 17 8 152
-22 149 -7 -1 -21 -3 -31 -6z"/>
<path d="M2455 3680 c-7 -23 -7 -23 58 -112 37 -52 54 -68 73 -68 19 0 24 5
24 25 0 44 -102 175 -137 175 -6 0 -14 -9 -18 -20z"/>
<path d="M6614 3682 c-34 -29 -106 -140 -102 -159 2 -11 13 -19 28 -20 21 -2
34 10 78 72 34 49 52 83 50 97 -4 29 -27 33 -54 10z"/>
<path d="M2357 3503 c-4 -3 -7 -17 -7 -29 0 -26 20 -35 79 -36 68 -1 80 21 29
52 -32 19 -88 27 -101 13z"/>
<path d="M6662 3490 c-56 -34 -22 -62 63 -50 37 5 40 8 43 38 3 31 2 32 -35
32 -21 0 -53 -9 -71 -20z"/>
<path d="M2800 3407 c-19 -12 -37 -25 -38 -29 -2 -5 -18 -16 -35 -25 l-32 -16
23 -15 c12 -8 22 -21 22 -28 0 -21 28 -17 35 6 3 11 10 20 15 20 9 0 60 86 60
101 0 13 -11 10 -50 -14z"/>
<path d="M2645 3300 c-4 -6 5 -10 19 -10 14 0 26 5 26 10 0 6 -9 10 -19 10
-11 0 -23 -4 -26 -10z"/>
<path d="M2590 3260 c0 -5 7 -10 15 -10 8 0 15 5 15 10 0 6 -7 10 -15 10 -8 0
-15 -4 -15 -10z"/>
<path d="M2701 3243 c-11 -23 -10 -29 5 -40 12 -9 22 -9 37 -1 25 13 124 6
140 -11 9 -10 7 -16 -10 -31 -28 -23 -29 -30 -3 -30 11 0 23 7 26 15 4 8 14
15 23 15 20 0 61 40 61 58 0 9 -33 12 -114 12 -106 0 -115 2 -121 20 -9 28
-30 25 -44 -7z"/>
<path d="M6250 3260 c0 -5 14 -10 31 -10 17 0 28 4 24 10 -3 6 -17 10 -31 10
-13 0 -24 -4 -24 -10z"/>
<path d="M6508 3218 c-16 -35 -17 -36 -60 -31 -36 5 -41 3 -30 -8 14 -16 88
-17 103 -2 6 6 9 26 7 44 l-3 34 -17 -37z"/>
<path d="M6335 3220 c3 -5 17 -10 31 -10 14 0 22 4 19 10 -3 6 -17 10 -31 10
-14 0 -22 -4 -19 -10z"/>
<path d="M6067 3113 c-13 -13 -7 -43 13 -63 12 -12 25 -32 30 -45 5 -14 16
-25 25 -25 9 0 15 -9 15 -24 0 -25 12 -40 23 -30 3 3 2 17 -3 30 -7 18 -4 32
11 59 24 40 20 51 -22 60 -17 4 -40 16 -50 26 -20 20 -31 23 -42 12z"/>
<path d="M2787 3104 c-4 -4 -4 -10 -2 -14 6 -10 45 0 45 11 0 10 -33 12 -43 3z"/>
<path d="M2725 3060 c-4 -6 5 -10 19 -10 14 0 26 5 26 10 0 6 -9 10 -19 10
-11 0 -23 -4 -26 -10z"/>
<path d="M3066 3047 c-3 -13 -23 -41 -45 -62 -23 -22 -41 -45 -41 -50 0 -6 -9
-16 -20 -23 -12 -7 -17 -18 -13 -27 5 -14 9 -13 29 6 19 18 27 20 36 11 14
-14 58 -16 58 -3 0 5 -7 11 -15 15 -18 7 -19 26 -3 61 9 19 19 25 44 25 45 0
52 18 18 46 -36 29 -40 29 -48 1z"/>
<path d="M6220 3020 c0 -5 12 -10 26 -10 14 0 23 4 19 10 -3 6 -15 10 -26 10
-10 0 -19 -4 -19 -10z"/>
<path d="M6300 2980 c0 -5 9 -10 20 -10 11 0 20 5 20 10 0 6 -9 10 -20 10 -11
0 -20 -4 -20 -10z"/>
<path d="M6190 2896 c0 -8 5 -18 10 -21 6 -3 10 3 10 14 0 12 -4 21 -10 21 -5
0 -10 -6 -10 -14z"/>
<path d="M2910 2833 c0 -41 13 -35 24 10 5 20 3 27 -9 27 -11 0 -15 -11 -15
-37z"/>
<path d="M6230 2831 c0 -12 5 -21 10 -21 6 0 10 6 10 14 0 8 -4 18 -10 21 -5
3 -10 -3 -10 -14z"/>
<path d="M5783 2825 c-3 -9 -3 -18 0 -21 9 -9 27 6 27 22 0 19 -19 18 -27 -1z"/>
<path d="M3311 2787 c-14 -18 -4 -27 29 -27 15 0 30 3 33 7 10 10 -13 33 -33
33 -10 0 -23 -6 -29 -13z"/>
<path d="M5756 2793 c-9 -10 -7 -101 3 -107 12 -8 21 18 21 64 0 37 -10 56
-24 43z"/>
<path d="M2904 2757 c-7 -20 3 -37 22 -37 18 0 18 24 -1 40 -12 10 -16 9 -21
-3z"/>
<path d="M3270 2731 c0 -11 -8 -26 -17 -33 -29 -22 -65 -78 -59 -94 5 -13 35
-9 46 6 3 4 25 17 49 29 42 22 43 23 22 38 -14 9 -21 23 -19 40 2 14 -3 28 -9
30 -8 3 -13 -4 -13 -16z"/>
<path d="M3390 2730 c0 -13 -7 -20 -20 -20 -11 0 -20 -4 -20 -10 0 -16 26 -11
43 8 19 21 22 42 7 42 -5 0 -10 -9 -10 -20z"/>
<path d="M2950 2700 c0 -5 5 -10 10 -10 6 0 10 5 10 10 0 6 -4 10 -10 10 -5 0
-10 -4 -10 -10z"/>
<path d="M6070 2680 c0 -18 4 -29 10 -25 6 3 10 15 10 25 0 10 -4 22 -10 25
-6 4 -10 -7 -10 -25z"/>
<path d="M5784 2654 c3 -9 6 -22 6 -30 0 -8 9 -14 20 -14 13 0 20 -7 20 -19 0
-12 9 -20 28 -24 43 -9 49 10 8 27 -25 10 -41 26 -49 46 -6 16 -18 30 -25 30
-9 0 -12 -6 -8 -16z"/>
<path d="M6033 2622 c-3 -12 -16 -25 -29 -28 -25 -6 -31 -19 -14 -29 26 -16
82 47 61 68 -9 9 -13 6 -18 -11z"/>
<path d="M3555 2620 c-3 -6 0 -13 8 -16 24 -9 80 0 85 14 5 15 -84 17 -93 2z"/>
<path d="M5515 2620 c-4 -6 13 -10 44 -10 28 0 51 5 51 10 0 6 -20 10 -44 10
-25 0 -48 -4 -51 -10z"/>
<path d="M3503 2581 c-3 -12 -11 -21 -18 -21 -15 0 -24 -19 -17 -38 5 -15 32
3 32 22 0 6 10 16 21 21 25 12 27 29 4 33 -10 2 -19 -5 -22 -17z"/>
<path d="M5626 2592 c-3 -6 1 -15 8 -21 8 -7 17 -8 20 -3 3 6 -1 15 -8 21 -8
7 -17 8 -20 3z"/>
<path d="M5470 2563 c1 -27 1 -27 15 -9 19 25 19 36 0 36 -10 0 -15 -10 -15
-27z"/>
<path d="M5670 2516 c0 -19 5 -38 10 -41 6 -4 10 10 10 34 0 23 -4 41 -10 41
-5 0 -10 -15 -10 -34z"/>
<path d="M3235 2510 c-3 -5 -1 -10 4 -10 6 0 11 5 11 10 0 6 -2 10 -4 10 -3 0
-8 -4 -11 -10z"/>
<path d="M3430 2475 c-13 -33 -2 -107 15 -106 14 1 19 96 6 118 -8 16 -11 14
-21 -12z"/>
<path d="M3972 2441 c-12 -17 -22 -36 -22 -43 0 -7 -12 -22 -27 -33 -31 -25
-23 -49 14 -42 37 7 53 -17 53 -81 0 -36 3 -53 10 -46 13 13 18 266 5 271 -6
2 -21 -10 -33 -26z"/>
<path d="M5470 2421 c0 -16 5 -33 10 -36 6 -4 10 6 10 24 0 16 -4 33 -10 36
-6 4 -10 -6 -10 -24z"/>
<path d="M5674 2410 c-12 -37 -8 -58 8 -42 5 5 8 25 6 43 l-4 34 -10 -35z"/>
<path d="M4232 2400 c-10 -26 -2 -121 9 -114 5 3 9 18 9 33 0 15 5 32 12 39
15 15 48 16 48 2 0 -5 5 -10 10 -10 17 0 11 30 -7 36 -10 3 -31 11 -46 19 -25
13 -28 13 -35 -5z"/>
<path d="M5150 2366 c0 -20 5 -36 10 -36 6 0 10 13 10 29 0 17 -4 33 -10 36
-6 4 -10 -8 -10 -29z"/>
<path d="M3465 2349 c-4 -5 6 -22 22 -36 31 -29 95 -39 139 -23 36 14 19 33
-22 25 -50 -9 -102 4 -109 26 -7 21 -20 25 -30 8z"/>
<path d="M5516 2352 c-3 -3 -3 -9 0 -13 6 -10 127 -12 137 -3 13 13 -4 23 -26
15 -13 -5 -42 -6 -65 -1 -23 4 -44 5 -46 2z"/>
<path d="M4555 2339 c-4 -6 -5 -12 -4 -13 8 -7 69 7 69 15 0 13 -57 11 -65 -2z"/>
<path d="M4650 2340 c0 -5 11 -10 25 -10 14 0 25 5 25 10 0 6 -11 10 -25 10
-14 0 -25 -4 -25 -10z"/>
<path d="M4350 2266 c0 -37 4 -66 10 -66 6 0 10 26 10 59 0 33 -4 63 -10 66
-6 4 -10 -18 -10 -59z"/>
<path d="M4710 2301 c0 -11 5 -23 10 -26 6 -4 10 5 10 19 0 14 -4 26 -10 26
-5 0 -10 -9 -10 -19z"/>
<path d="M3870 2290 c0 -11 4 -20 9 -20 5 0 11 9 14 20 3 13 0 20 -9 20 -8 0
-14 -9 -14 -20z"/>
<path d="M5190 2271 c0 -16 5 -33 10 -36 6 -4 10 6 10 24 0 16 -4 33 -10 36
-6 4 -10 -6 -10 -24z"/>
<path d="M4510 2201 c0 -50 5 -93 10 -96 6 -4 10 28 10 89 0 57 -4 96 -10 96
-6 0 -10 -36 -10 -89z"/>
<path d="M3835 2237 c-4 -10 -5 -21 -1 -24 10 -10 18 4 13 24 -4 17 -4 17 -12
0z"/>
<path d="M5230 2183 c0 -29 7 -32 50 -19 50 15 61 26 24 26 -16 0 -39 3 -51 6
-18 5 -23 2 -23 -13z"/>
<path d="M4310 2167 c0 -8 -10 -19 -22 -25 -17 -8 -19 -11 -6 -11 18 -1 48 24
48 40 0 5 -4 9 -10 9 -5 0 -10 -6 -10 -13z"/>
<path d="M4710 2145 c0 -14 5 -25 10 -25 6 0 10 11 10 25 0 14 -4 25 -10 25
-5 0 -10 -11 -10 -25z"/>
<path d="M4196 2125 c-8 -23 -8 -23 14 -35 12 -6 30 -8 40 -5 28 9 25 35 -3
35 -13 0 -28 5 -34 11 -7 7 -12 6 -17 -6z"/>
<path d="M4670 2100 c0 -5 4 -10 9 -10 6 0 13 5 16 10 3 6 -1 10 -9 10 -9 0
-16 -4 -16 -10z"/>
<path d="M4575 2060 c3 -5 21 -10 40 -10 19 0 37 5 40 10 4 6 -12 10 -40 10
-28 0 -44 -4 -40 -10z"/>
</g>
</svg>
