<?xml version="1.0" standalone="no"?>
<!DOCTYPE svg PUBLIC "-//W3C//DTD SVG 20010904//EN"
 "http://www.w3.org/TR/2001/REC-SVG-20010904/DTD/svg10.dtd">
<svg version="1.0" xmlns="http://www.w3.org/2000/svg"
 width="912.000000pt" height="912.000000pt" viewBox="0 0 912.000000 912.000000"
 preserveAspectRatio="xMidYMid meet">
<metadata>
Created by potrace 1.11, written by Peter Selinger 2001-2013
</metadata>
<g transform="translate(0.000000,912.000000) scale(0.100000,-0.100000)"
fill="#000000" stroke="none">
<path d="M4258 9109 c-9 -5 -27 -7 -40 -5 -13 2 -29 -1 -35 -6 -7 -6 -19 -8
-28 -5 -8 4 -21 -1 -30 -9 -8 -9 -15 -11 -15 -6 0 6 -7 13 -16 16 -13 5 -14 3
-6 -7 9 -10 4 -12 -21 -11 -18 1 -32 3 -32 4 0 1 -10 3 -22 6 -13 2 -23 -1
-23 -7 0 -5 6 -7 13 -3 6 4 9 4 5 -1 -11 -12 -70 -13 -93 -2 -20 10 -20 10 0
-14 11 -13 13 -18 5 -12 -10 9 -17 10 -27 1 -10 -8 -12 -8 -8 4 4 10 -2 14
-19 14 -14 0 -22 -4 -20 -8 3 -5 10 -6 15 -3 5 3 6 -1 2 -10 -3 -10 -8 -12
-12 -7 -8 13 -43 11 -53 -3 -5 -6 -8 -5 -8 3 0 6 -5 12 -11 12 -5 0 -8 -3 -6
-7 3 -5 -6 -9 -19 -9 -15 -1 -22 2 -17 10 3 6 -3 3 -14 -6 -23 -21 -48 -24
-37 -5 5 8 3 8 -9 -2 -9 -7 -14 -18 -10 -25 4 -6 -1 -4 -11 4 -11 8 -14 16 -7
18 6 2 8 8 5 14 -4 5 -15 -3 -25 -19 -19 -29 -39 -36 -51 -18 -5 6 -8 6 -8 -2
0 -7 -5 -13 -11 -13 -5 0 -7 6 -3 13 6 10 4 10 -7 0 -7 -7 -17 -13 -22 -13 -4
0 -5 6 -2 13 4 6 -1 3 -9 -8 -10 -12 -28 -19 -46 -19 -22 1 -28 -2 -21 -10 7
-8 4 -12 -9 -12 -10 0 -17 3 -14 7 2 4 -3 9 -11 12 -8 4 -12 1 -9 -6 2 -7 -5
-18 -16 -25 -16 -10 -20 -10 -18 0 2 7 -3 12 -9 11 -7 -2 -13 2 -13 9 0 6 -3
8 -6 5 -4 -4 -1 -14 7 -24 8 -9 9 -14 2 -10 -6 4 -15 3 -18 -3 -5 -8 -12 -7
-23 2 -13 11 -15 10 -9 -5 6 -16 5 -16 -20 0 l-26 17 13 -24 c12 -22 12 -24
-3 -12 -13 11 -17 10 -27 -5 -10 -16 -11 -16 -6 0 3 9 1 17 -4 17 -6 0 -10 -5
-10 -11 0 -5 -5 -7 -11 -3 -7 4 -20 -4 -31 -17 -13 -16 -18 -18 -14 -7 3 10 1
20 -5 23 -5 4 -9 3 -8 -2 3 -19 -2 -33 -12 -33 -5 0 -7 6 -4 13 4 6 -2 2 -13
-10 -22 -25 -42 -32 -23 -9 9 11 9 16 0 22 -8 5 -9 3 -4 -6 6 -10 4 -12 -8 -7
-11 4 -14 2 -11 -7 3 -7 -2 -19 -11 -26 -9 -7 -15 -8 -15 -2 0 6 6 13 13 16 6
2 1 3 -12 2 -14 -2 -27 -8 -29 -14 -2 -7 -13 -12 -23 -12 -13 0 -18 -4 -13
-12 4 -7 4 -10 -1 -6 -4 4 -15 2 -23 -5 -9 -6 -13 -7 -10 -2 4 6 2 17 -3 25
-9 13 -10 13 -8 0 3 -29 -1 -41 -11 -35 -6 4 -7 11 -4 17 5 7 2 8 -7 2 -8 -4
-24 -9 -37 -10 -12 0 -26 -5 -30 -9 -4 -5 1 -6 10 -2 9 3 19 0 22 -8 3 -9 0
-12 -11 -8 -8 3 -19 0 -24 -8 -7 -12 -9 -12 -9 0 0 11 -4 10 -16 -5 -8 -10
-13 -14 -10 -7 7 13 -19 12 -31 -2 -4 -4 -2 -5 5 -1 6 4 12 5 12 2 0 -3 -10
-10 -21 -17 -15 -8 -19 -8 -15 0 4 6 2 11 -3 11 -6 0 -11 -6 -11 -12 0 -7 -15
-20 -33 -28 -17 -8 -31 -21 -29 -28 1 -8 -2 -11 -8 -7 -6 3 -7 12 -3 18 3 7
-3 4 -14 -6 -12 -11 -24 -14 -27 -9 -3 6 -1 13 4 15 6 3 5 4 -2 3 -7 -2 -12
-11 -11 -21 1 -12 -2 -14 -9 -7 -13 13 -48 -2 -48 -20 0 -6 9 -3 20 7 11 10
20 13 20 8 0 -10 -24 -25 -42 -27 -3 -1 -10 -4 -14 -8 -4 -5 -12 -8 -18 -8 -5
0 -2 6 8 13 16 12 16 14 2 14 -9 0 -16 -4 -16 -9 0 -5 -4 -6 -10 -3 -5 3 -15
-3 -22 -14 -8 -14 -16 -17 -24 -10 -8 6 -10 2 -8 -17 1 -14 0 -23 -3 -20 -3 3
-18 -1 -34 -10 -36 -18 -40 -19 -51 -2 -6 9 -8 3 -5 -17 2 -16 2 -24 0 -17 -4
11 -8 11 -21 0 -13 -11 -14 -11 -8 0 7 11 4 12 -13 3 -11 -7 -21 -19 -21 -29
-1 -13 -4 -11 -16 8 -8 14 -13 17 -10 7 3 -10 0 -20 -9 -23 -8 -4 -12 -10 -9
-15 3 -5 0 -9 -5 -9 -6 0 -11 5 -11 11 0 6 -7 3 -16 -5 -8 -9 -19 -14 -24 -11
-5 3 -11 1 -14 -4 -4 -5 -1 -13 5 -17 7 -4 9 -3 6 2 -3 6 5 10 18 10 20 0 27
-11 7 -11 -4 0 -13 -4 -20 -9 -8 -4 -20 -2 -29 6 -12 9 -15 9 -9 1 4 -8 2 -13
-8 -13 -8 0 -21 -9 -29 -21 -11 -15 -16 -17 -20 -7 -5 12 -11 -25 -8 -45 1 -5
-3 -6 -9 -2 -6 3 -8 11 -5 16 4 5 1 9 -5 9 -6 0 -13 -7 -16 -15 -4 -8 -13 -15
-21 -15 -9 0 -13 -6 -9 -15 3 -8 0 -14 -7 -12 -7 1 -11 -5 -9 -13 3 -12 1 -12
-9 -3 -6 6 -18 9 -27 6 -11 -5 -13 -3 -7 7 5 8 4 11 -3 6 -6 -3 -9 -15 -7 -26
2 -11 -1 -23 -7 -26 -6 -4 -8 -3 -5 3 4 6 0 13 -8 16 -10 4 -12 1 -8 -10 5
-13 2 -15 -12 -10 -15 6 -16 5 -5 -8 11 -13 10 -14 -4 -9 -19 7 -22 -11 -3
-20 6 -3 1 -3 -12 0 -16 4 -21 2 -17 -5 5 -7 1 -9 -8 -5 -9 3 -13 11 -9 17 3
6 1 7 -5 3 -6 -3 -9 -15 -7 -26 2 -11 -1 -23 -7 -26 -7 -4 -8 -2 -4 4 4 7 3
12 -2 12 -5 0 -14 -10 -21 -22 -11 -23 -11 -23 -5 2 6 24 5 24 -9 5 -8 -10
-13 -25 -10 -32 3 -7 1 -13 -5 -13 -6 0 -12 6 -15 13 -3 9 -8 9 -18 -2 -9 -9
-9 -11 -1 -7 6 4 12 2 12 -3 0 -10 -16 -15 -47 -14 -6 0 -9 -6 -6 -15 4 -9 2
-13 -3 -9 -6 3 -16 1 -24 -5 -12 -8 -12 -9 2 -4 12 3 15 1 11 -9 -3 -8 -10
-12 -16 -8 -6 4 -8 0 -4 -11 4 -9 3 -15 -2 -11 -5 3 -12 -1 -15 -7 -3 -7 -4
-2 -1 12 3 14 2 19 -1 12 -3 -6 -11 -9 -17 -5 -7 3 -9 3 -5 -2 4 -4 2 -15 -5
-23 -10 -13 -9 -14 2 -7 10 6 12 4 7 -4 -5 -7 -14 -10 -21 -7 -8 3 -19 -2 -25
-9 -7 -8 -16 -13 -20 -10 -4 2 -6 -7 -4 -21 2 -19 -1 -23 -10 -15 -17 14 -29
1 -14 -16 9 -11 7 -12 -7 -7 -12 5 -16 4 -12 -3 4 -6 -3 -19 -15 -29 -12 -11
-18 -14 -15 -8 4 7 0 14 -8 17 -10 4 -12 1 -8 -10 5 -12 2 -15 -9 -11 -9 4
-15 0 -15 -8 0 -9 6 -13 15 -9 13 5 13 3 1 -11 -8 -10 -15 -12 -17 -5 -2 6 -8
11 -14 11 -6 0 -8 -6 -5 -14 3 -8 -1 -20 -9 -26 -8 -7 -14 -9 -14 -6 0 4 -6 1
-14 -6 -8 -7 -12 -15 -11 -18 2 -3 -1 -12 -7 -20 -8 -12 -9 -12 -4 3 3 9 1 17
-4 17 -9 0 -14 -14 -11 -32 0 -4 -7 -4 -17 -1 -15 6 -15 5 -3 -10 13 -16 12
-17 -13 -7 -24 9 -26 8 -16 -9 13 -24 -12 -47 -49 -44 -23 2 -24 2 -6 -6 20
-9 18 -12 -7 -15 -7 0 -13 -9 -13 -18 0 -9 -8 -25 -18 -35 -9 -11 -14 -22 -11
-26 3 -3 -9 -4 -27 -2 -19 2 -28 1 -21 -2 6 -2 12 -9 12 -14 0 -6 -5 -7 -10
-4 -5 3 -10 2 -10 -4 0 -5 4 -11 8 -13 5 -1 -5 -14 -22 -27 l-31 -25 23 26
c17 19 20 28 11 33 -7 5 -10 4 -6 -2 4 -6 -2 -18 -13 -28 -10 -9 -16 -23 -13
-31 5 -12 -13 -19 -40 -15 -4 0 -6 -2 -5 -6 2 -11 -30 -83 -37 -83 -3 0 -4 4
-1 8 3 5 -1 9 -9 9 -8 0 -14 -3 -13 -6 2 -19 -3 -31 -11 -26 -15 8 -21 -9 -9
-25 8 -12 8 -11 3 5 -5 15 -3 17 6 8 17 -17 1 -37 -17 -22 -8 6 -17 9 -21 5
-3 -3 -2 -6 4 -6 5 0 10 -14 10 -30 0 -17 -3 -27 -6 -23 -8 11 -48 10 -58 -1
-4 -5 -3 -6 3 -3 7 4 17 0 24 -8 11 -13 10 -14 -5 -9 -12 5 -16 4 -12 -3 4 -6
0 -16 -8 -23 -13 -10 -15 -10 -12 1 2 8 2 11 0 6 -3 -4 -10 -5 -16 -1 -7 3 -1
-5 13 -17 17 -15 19 -20 8 -16 -18 6 -23 -2 -18 -33 1 -9 -7 -6 -21 10 -13 14
-20 18 -16 9 3 -9 -1 -26 -9 -38 -14 -19 -13 -20 3 -15 13 5 11 2 -5 -10 -12
-10 -19 -22 -16 -28 4 -6 2 -8 -4 -5 -5 4 -8 17 -5 30 3 12 3 19 0 16 -4 -3
-8 -14 -10 -25 -4 -29 -17 -45 -29 -38 -6 4 -8 2 -4 -4 3 -5 0 -13 -6 -15 -8
-4 -9 -6 -2 -6 6 -1 17 6 24 14 7 8 17 15 23 15 6 0 1 -7 -11 -16 -13 -9 -21
-22 -19 -28 3 -7 -1 -13 -9 -13 -7 0 -10 5 -7 11 4 6 -2 4 -13 -4 -10 -8 -20
-15 -22 -16 -2 -1 4 -4 13 -8 11 -4 14 -2 9 7 -5 8 -2 7 9 -2 9 -7 17 -16 17
-19 0 -3 -3 -2 -7 1 -3 4 -13 1 -21 -6 -13 -10 -14 -9 -7 3 5 9 -1 7 -14 -5
-19 -17 -20 -21 -7 -30 12 -10 11 -13 -7 -25 -20 -12 -21 -11 -9 2 10 13 10
17 -3 22 -10 3 -13 2 -10 -5 4 -5 -1 -22 -11 -37 -14 -22 -15 -25 -2 -14 14
11 16 10 11 -7 -3 -13 -10 -18 -21 -13 -15 5 -15 4 -3 -11 12 -15 12 -17 -2
-11 -18 7 -43 -31 -27 -41 5 -3 10 -12 10 -18 0 -7 -4 -6 -10 3 -9 14 -15 7
-11 -14 1 -5 -5 -3 -14 4 -14 12 -15 10 -6 -13 8 -19 6 -28 -4 -37 -8 -7 -12
-16 -9 -21 3 -5 -2 -6 -10 -3 -11 4 -14 0 -11 -15 2 -13 0 -19 -6 -15 -17 10
-37 -15 -34 -42 2 -18 -2 -24 -11 -20 -7 3 -16 1 -19 -5 -4 -5 -1 -8 5 -7 7 2
14 -5 15 -14 3 -15 0 -16 -17 -7 -13 7 -18 7 -14 1 3 -6 3 -12 -1 -15 -5 -2
-3 -3 2 -1 6 1 11 -7 11 -17 0 -14 -3 -15 -13 -7 -10 8 -12 7 -7 -6 4 -10 1
-16 -9 -16 -9 0 -19 -4 -22 -10 -4 -6 1 -7 12 -3 15 6 16 4 6 -9 -7 -8 -11
-17 -8 -20 3 -3 -1 -11 -10 -18 -8 -7 -15 -21 -15 -31 0 -11 -4 -19 -10 -19
-5 0 -7 8 -3 18 7 18 5 17 -17 -11 -7 -10 -9 -17 -4 -15 5 2 9 -2 9 -7 0 -5
-3 -9 -6 -8 -3 1 -6 -4 -6 -12 0 -8 4 -12 8 -10 4 3 6 -3 4 -12 -2 -10 -4 -21
-4 -25 -1 -5 -10 -8 -21 -8 -14 0 -18 -5 -13 -17 4 -9 2 -14 -3 -10 -6 3 -11
-4 -11 -16 -2 -17 0 -19 7 -7 5 8 10 11 10 5 -1 -13 -26 -46 -31 -41 -2 2 -10
-2 -17 -10 -7 -8 -8 -14 -2 -14 5 0 10 -5 10 -11 0 -6 -8 -8 -18 -5 -14 5 -14
4 2 -9 11 -8 14 -15 8 -15 -7 0 -11 -3 -11 -7 1 -5 1 -17 0 -28 -1 -17 -3 -18
-11 -5 -8 12 -10 9 -10 -13 0 -16 -4 -26 -10 -22 -6 3 -10 1 -10 -4 0 -6 5
-11 12 -11 9 0 9 -3 0 -12 -15 -15 -16 -31 0 -22 7 5 8 3 4 -5 -5 -7 -14 -10
-22 -7 -7 3 -16 0 -20 -6 -4 -6 -3 -8 4 -4 6 3 13 2 17 -4 4 -6 11 -7 17 -4 7
4 8 2 4 -5 -4 -6 -12 -9 -17 -6 -5 4 -17 1 -26 -5 -16 -11 -16 -11 1 -5 19 6
19 5 2 -14 -13 -14 -14 -21 -5 -27 8 -5 10 -3 4 6 -5 9 -4 11 4 6 9 -6 9 -11
0 -22 -13 -16 -23 -19 -14 -4 4 6 -1 7 -11 3 -14 -5 -13 -8 6 -18 19 -10 20
-13 6 -18 -12 -5 -15 -3 -10 6 4 6 -2 3 -14 -7 -26 -23 -26 -23 -7 -23 8 0 11
5 8 10 -3 6 -1 7 6 3 8 -5 6 -15 -9 -36 -15 -21 -17 -31 -9 -36 8 -5 9 -3 4 6
-5 9 -4 11 4 6 9 -6 9 -11 0 -22 -14 -17 -23 -19 -13 -2 4 7 3 8 -4 4 -6 -4
-8 -14 -5 -24 6 -15 5 -15 -10 -3 -9 7 -17 9 -17 3 0 -16 26 -22 39 -9 9 9 11
8 6 -5 -4 -10 -16 -18 -26 -18 -10 0 -19 -5 -19 -11 0 -5 5 -7 12 -3 7 5 8 3
3 -6 -6 -10 -4 -12 8 -7 27 10 20 -1 -10 -17 -16 -8 -22 -15 -14 -16 11 0 10
-3 -4 -13 -14 -11 -15 -16 -5 -22 9 -5 11 -4 6 3 -4 7 -2 12 3 12 20 0 11 -21
-19 -48 -29 -27 -29 -28 -8 -29 18 -2 19 0 8 7 -11 7 -10 9 8 7 21 -1 21 -2
-8 -29 -30 -27 -39 -48 -19 -48 5 0 7 5 3 12 -5 7 -3 8 6 3 10 -6 9 -11 -5
-22 -12 -8 -14 -13 -6 -13 11 0 11 -3 1 -15 -10 -11 -10 -19 -2 -27 15 -15 4
-38 -18 -38 -11 0 -21 -4 -24 -9 -4 -5 4 -6 16 -3 22 5 22 5 6 -12 -10 -10
-18 -23 -18 -29 0 -7 4 -6 10 3 7 12 9 10 7 -7 0 -12 -5 -19 -9 -17 -4 3 -8 0
-8 -6 0 -6 -5 -8 -12 -4 -7 4 -8 3 -4 -4 4 -7 15 -12 24 -12 15 -1 15 -2 -1
-11 -12 -7 -16 -17 -11 -31 4 -15 3 -19 -7 -14 -8 4 -5 0 5 -8 17 -14 17 -16
3 -16 -10 0 -14 -5 -11 -15 4 -8 11 -12 16 -9 6 4 3 -5 -6 -18 -9 -14 -13 -28
-9 -33 5 -4 0 -5 -10 -2 -10 4 -16 3 -12 -2 3 -5 2 -11 -2 -14 -5 -2 -3 -3 3
-1 6 1 11 -4 11 -12 0 -8 -6 -13 -12 -10 -9 3 -10 -1 -1 -19 6 -13 15 -21 21
-17 5 3 4 -2 -4 -11 -15 -18 -26 -23 -16 -7 3 6 1 10 -4 10 -12 0 -14 -13 -4
-24 13 -13 12 -38 -2 -33 -9 4 -11 -1 -8 -14 3 -10 10 -16 15 -12 6 3 8 0 6
-8 -3 -8 -10 -13 -16 -12 -6 2 -9 -4 -6 -12 4 -8 9 -13 13 -10 4 2 8 -2 8 -9
0 -8 -7 -12 -15 -8 -9 3 -13 1 -9 -5 4 -6 1 -14 -5 -17 -7 -3 -2 -3 12 0 14 3
20 2 15 -3 -12 -9 -14 -48 -3 -58 9 -9 -2 -35 -14 -35 -6 0 -6 6 1 14 8 10 9
16 1 21 -6 3 -8 10 -6 14 3 4 0 13 -5 21 -6 10 -8 4 -4 -19 4 -22 1 -37 -7
-42 -11 -7 -11 -9 0 -9 7 0 10 -5 6 -11 -4 -8 1 -9 17 -5 l24 6 -22 -11 c-13
-7 -23 -15 -24 -18 -6 -58 -2 -181 6 -181 7 0 7 -3 0 -8 -5 -4 -11 -22 -12
-41 -1 -24 2 -30 8 -20 5 8 9 9 9 4 0 -6 -5 -16 -11 -22 -16 -16 -3 -47 17
-39 8 3 12 2 9 -4 -3 -6 -12 -10 -18 -10 -7 0 -12 -13 -12 -30 0 -22 4 -29 15
-25 10 3 10 1 -3 -9 -21 -16 -21 -20 -1 -40 14 -15 14 -16 -2 -16 -16 0 -16
-1 -1 -18 10 -11 13 -22 8 -28 -5 -5 -12 -20 -16 -34 -5 -19 -4 -21 4 -10 9
13 12 13 23 1 10 -10 10 -12 1 -7 -17 9 -17 -6 0 -24 10 -12 9 -12 -5 -2 -12
10 -18 10 -24 1 -4 -7 -3 -9 4 -5 6 3 14 -4 18 -16 12 -36 13 -49 3 -42 -5 3
-6 11 -3 17 4 7 3 8 -1 4 -15 -13 -14 -37 0 -37 8 0 17 -5 21 -12 5 -8 2 -9
-11 -4 -15 5 -16 4 -5 -9 7 -8 9 -15 6 -15 -4 0 -2 -10 5 -21 8 -15 8 -19 0
-15 -7 5 -11 -3 -11 -21 0 -21 3 -24 10 -13 7 12 9 10 7 -7 0 -12 -5 -19 -9
-17 -4 3 -8 0 -8 -5 0 -6 4 -11 8 -11 4 0 8 -9 8 -20 0 -14 -5 -19 -16 -15 -9
3 -8 -1 4 -10 14 -11 16 -15 5 -15 -9 0 -10 -3 -3 -8 6 -4 14 -16 17 -26 7
-17 6 -17 -10 -5 -16 13 -17 12 -4 -4 8 -10 20 -16 28 -13 10 4 11 1 4 -13 -6
-10 -7 -21 -3 -25 3 -4 -1 -4 -11 0 -13 5 -16 2 -11 -10 3 -9 11 -13 17 -9 6
4 8 0 4 -10 -3 -9 -1 -19 5 -23 7 -5 8 -2 3 6 -5 8 -4 11 3 6 11 -7 6 -31 -11
-53 -6 -9 -4 -15 7 -19 9 -3 16 -10 16 -16 0 -5 -4 -7 -8 -4 -5 3 -9 -1 -9 -9
0 -8 5 -11 10 -8 6 4 8 0 4 -10 -3 -9 1 -23 9 -32 9 -8 12 -15 7 -15 -5 0 -13
5 -19 10 -7 7 -10 2 -10 -13 0 -16 6 -24 20 -25 17 -1 18 1 6 8 -9 6 -10 10
-3 10 19 0 26 -20 9 -26 -15 -6 -11 -34 6 -34 5 0 6 6 2 13 -4 6 -3 8 2 4 4
-4 9 -21 9 -37 1 -23 -2 -27 -12 -18 -19 15 -16 4 6 -20 10 -12 22 -18 26 -14
5 4 5 1 1 -6 -4 -7 -11 -10 -16 -7 -5 3 -11 1 -15 -5 -3 -5 -1 -10 5 -10 6 0
8 -4 5 -10 -3 -5 -1 -10 4 -10 6 0 11 -5 11 -11 0 -5 -4 -8 -8 -5 -4 2 -9 -5
-9 -16 -2 -20 -1 -20 12 -2 13 17 14 16 15 -19 0 -23 4 -36 10 -32 6 3 10 -1
10 -10 0 -9 -4 -13 -10 -10 -5 3 -10 1 -10 -4 0 -6 4 -11 9 -11 5 0 14 -13 21
-30 7 -16 17 -27 23 -23 6 4 7 1 2 -7 -6 -10 -13 -7 -27 11 -19 23 -19 23 -8
1 6 -12 8 -27 4 -33 -3 -6 3 -13 15 -16 24 -6 26 -14 9 -31 -9 -9 -9 -12 0
-12 7 0 12 -5 12 -11 0 -5 -6 -7 -12 -4 -7 4 -4 -2 8 -12 11 -10 18 -25 16
-33 -5 -13 -3 -13 13 0 17 14 17 14 7 -7 -15 -27 -15 -36 -2 -28 6 4 10 3 9
-2 -1 -4 0 -10 1 -13 8 -21 7 -39 -2 -34 -6 4 -8 2 -4 -4 3 -5 1 -12 -6 -14
-9 -3 -9 -6 0 -12 7 -4 12 -2 12 3 0 6 7 11 15 11 20 0 19 -10 -2 -26 -16 -12
-16 -13 5 -9 20 4 22 2 12 -10 -10 -12 -10 -15 1 -15 11 0 11 -2 -1 -10 -12
-8 -10 -10 10 -11 17 -1 20 -3 7 -6 -9 -2 -15 -9 -11 -14 3 -5 11 -6 17 -2 7
4 5 -1 -3 -11 -13 -16 -12 -20 7 -36 17 -13 19 -20 10 -30 -10 -10 -8 -12 7
-6 16 5 17 4 6 -9 -7 -9 -10 -18 -6 -22 3 -3 6 -1 6 5 0 7 5 12 12 12 6 0 8
-3 5 -7 -4 -3 0 -17 9 -31 9 -13 11 -21 5 -18 -6 4 -11 0 -11 -9 0 -10 5 -13
12 -9 8 5 9 2 5 -10 -5 -11 2 -26 18 -42 26 -26 31 -36 16 -32 -5 2 -9 0 -10
-4 -1 -5 2 -7 5 -5 4 1 10 -8 15 -20 6 -16 13 -21 26 -16 17 7 17 6 1 -11 -23
-22 -23 -27 0 -19 13 5 15 3 5 -7 -14 -16 1 -52 20 -48 7 2 13 -1 14 -7 1 -5
-8 -9 -20 -8 l-22 3 22 -10 c15 -6 21 -16 18 -29 -2 -11 3 -22 11 -25 10 -4
13 -2 8 7 -6 9 -5 9 8 0 8 -7 18 -10 21 -6 4 3 7 1 7 -4 0 -6 -6 -14 -12 -17
-10 -5 -10 -7 0 -12 9 -4 10 -10 2 -19 -7 -9 -6 -16 7 -26 9 -8 14 -9 10 -2
-4 6 -2 15 4 19 7 4 9 3 5 -4 -3 -6 1 -18 10 -27 15 -15 14 -15 -10 -11 -15 3
-24 1 -21 -5 4 -5 10 -7 14 -4 5 2 19 -4 31 -15 13 -11 19 -20 14 -20 -6 0
-15 5 -20 10 -7 7 -11 6 -11 -4 0 -8 3 -13 7 -11 15 9 51 -27 45 -45 -3 -10
-1 -21 5 -25 6 -3 7 -12 4 -18 -4 -8 -2 -7 7 1 12 11 12 14 -1 22 -9 6 -10 10
-3 10 7 0 17 -10 24 -21 6 -12 7 -19 2 -16 -5 4 -10 -7 -10 -24 0 -19 3 -25 9
-17 6 10 8 10 8 1 0 -7 6 -13 14 -13 8 0 18 -5 22 -12 4 -6 3 -8 -2 -5 -6 3
-10 -5 -10 -17 0 -12 6 -23 13 -23 17 0 17 14 1 20 -10 4 -10 6 -1 6 19 1 26
-18 13 -34 -10 -12 -9 -15 3 -15 8 0 17 6 20 13 3 6 4 2 4 -10 -1 -12 -5 -19
-10 -16 -5 3 -4 -4 2 -16 7 -11 14 -21 17 -21 3 0 3 4 -1 9 -3 5 0 13 6 17 8
4 9 3 5 -4 -4 -7 -3 -12 2 -12 6 0 8 -9 5 -20 -3 -11 0 -20 6 -20 6 0 11 -6
11 -14 0 -7 8 -20 18 -27 16 -13 16 -13 2 6 -14 19 -14 19 3 6 12 -9 14 -17 7
-26 -11 -13 -4 -25 14 -25 6 0 4 5 -4 10 -8 5 -10 10 -4 10 19 0 47 -37 34
-45 -8 -5 0 -14 19 -26 27 -16 30 -22 21 -38 -7 -14 -7 -22 2 -27 6 -4 8 -3 5
3 -4 6 0 14 9 17 8 3 13 2 9 -3 -8 -14 6 -42 18 -34 5 3 7 1 3 -5 -3 -6 2 -18
11 -28 10 -10 18 -25 18 -33 0 -9 8 -16 17 -16 9 0 20 -4 25 -9 5 -5 2 -6 -7
-2 -8 4 -4 -2 10 -13 21 -18 22 -20 5 -15 -18 5 -18 4 -2 -6 9 -6 22 -8 29 -4
7 4 8 3 4 -4 -4 -7 -2 -12 5 -12 8 0 8 -4 -1 -16 -11 -13 -10 -16 9 -21 12 -3
20 -12 19 -22 -2 -9 3 -15 9 -13 7 1 13 -2 13 -8 0 -5 8 -6 18 -3 14 6 15 4 4
-9 -9 -11 -10 -18 -2 -23 6 -3 7 -11 4 -17 -4 -6 -2 -8 4 -4 6 3 13 2 17 -3 3
-6 12 -8 20 -4 11 4 15 -2 15 -20 0 -14 5 -29 12 -33 8 -5 9 -2 4 11 -5 15 -4
16 8 5 9 -6 15 -15 14 -18 0 -4 0 -16 1 -26 1 -20 1 -20 16 0 14 18 14 18 8
-3 -5 -22 4 -29 31 -24 5 1 6 -6 2 -15 -5 -14 -4 -15 8 -5 11 9 16 9 22 0 4
-7 3 -9 -3 -6 -6 4 -14 0 -17 -9 -4 -10 -2 -13 6 -8 8 5 9 2 4 -11 -6 -16 -4
-16 11 -4 15 12 16 12 11 -2 -5 -12 -1 -15 18 -13 13 1 22 -2 18 -7 -3 -5 -10
-6 -16 -3 -7 4 -8 2 -4 -5 4 -6 15 -10 24 -9 12 2 17 -4 16 -19 -1 -15 3 -20
14 -16 11 5 13 1 7 -18 -5 -18 -4 -20 4 -9 8 12 13 11 29 -8 20 -23 38 -30 26
-10 -4 7 -3 8 4 4 6 -4 9 -13 6 -21 -4 -8 -11 -12 -17 -8 -6 3 -7 1 -3 -5 4
-6 23 -19 44 -29 52 -25 96 -70 55 -57 -15 5 -15 4 -3 -4 8 -7 19 -7 25 -2 18
15 38 -5 31 -31 -3 -13 -3 -18 0 -11 8 17 24 15 24 -3 0 -8 5 -15 11 -15 5 0
7 6 3 13 -5 8 -2 7 9 -2 16 -13 16 -14 0 -27 -16 -12 -15 -13 10 -4 19 7 26 7
22 0 -3 -6 0 -10 8 -10 18 0 38 -23 41 -47 2 -13 11 -18 29 -17 18 1 27 -4 27
-13 0 -9 6 -13 14 -10 10 4 12 0 9 -14 -4 -13 0 -19 11 -19 10 0 15 -4 11 -9
-3 -6 4 -15 16 -21 15 -8 19 -9 15 -1 -4 6 0 11 9 11 9 0 13 -4 10 -10 -3 -5
-1 -10 5 -10 6 0 8 -5 4 -12 -5 -7 -3 -8 7 -2 26 16 36 12 33 -15 -2 -24 -2
-24 11 -8 8 12 15 14 20 8 3 -6 1 -11 -4 -11 -6 0 -11 -5 -11 -11 0 -6 9 -8
21 -4 12 4 19 3 16 -2 -3 -5 -2 -15 4 -23 6 -11 9 -12 9 -2 0 7 5 10 10 7 6
-4 8 -16 5 -28 -4 -12 -3 -17 2 -12 15 19 48 11 61 -15 7 -15 22 -26 35 -27
29 -3 68 -24 61 -35 -5 -8 16 -12 46 -9 13 2 13 1 0 -8 -11 -8 -11 -11 -2 -11
8 0 10 -5 6 -12 -5 -9 -2 -9 9 1 11 9 17 10 17 2 0 -6 9 -11 20 -11 17 0 24
-13 22 -40 0 -3 8 -6 18 -6 10 0 18 3 17 6 -1 3 3 5 8 5 6 0 9 -5 7 -12 -1 -6
6 -17 17 -22 16 -9 20 -7 24 7 4 16 5 16 6 0 0 -10 6 -18 12 -18 5 0 7 -6 3
-12 -5 -10 -4 -10 6 -1 15 14 40 6 40 -14 0 -8 4 -11 10 -8 6 3 10 2 10 -4 0
-6 7 -7 17 -4 11 4 14 3 9 -5 -4 -7 -2 -12 4 -12 6 0 9 -4 6 -8 -3 -5 1 -9 9
-9 8 0 12 4 9 9 -3 4 0 8 5 8 6 0 11 -5 11 -11 0 -6 7 -8 16 -5 9 3 25 -4 40
-19 13 -13 24 -20 24 -14 0 5 6 4 14 -3 10 -9 11 -15 2 -21 -7 -5 -6 -7 4 -6
8 1 24 1 35 0 17 -1 18 -3 5 -12 -13 -9 -13 -10 1 -6 9 3 21 1 27 -5 6 -6 12
-6 17 3 6 8 4 10 -5 4 -9 -5 -11 -4 -6 4 12 18 24 4 20 -24 -2 -20 1 -24 10
-16 9 7 17 7 26 -2 12 -10 12 -9 1 5 -7 10 -18 15 -25 11 -7 -4 -6 -1 1 9 7 8
11 18 8 21 -3 4 -2 4 3 1 4 -3 7 -9 7 -13 0 -3 11 -18 24 -31 17 -18 22 -20
18 -8 -8 23 12 19 35 -6 10 -10 15 -24 11 -30 -5 -8 -3 -8 8 0 18 15 61 8 75
-11 6 -8 19 -15 28 -15 10 0 15 -4 12 -8 -2 -4 5 -9 17 -9 17 -2 19 0 7 7 -9
6 -10 10 -3 10 6 0 18 -8 25 -17 16 -22 54 -31 42 -11 -4 8 -3 10 2 5 5 -5 9
-14 9 -20 0 -15 24 -17 48 -4 16 7 18 6 12 -12 -4 -13 -2 -21 5 -21 6 0 8 4 5
10 -3 5 -1 10 5 10 6 0 8 5 4 12 -4 7 -3 8 4 4 6 -4 8 -14 5 -22 -5 -14 -3
-14 14 -6 16 9 24 7 42 -9 11 -11 21 -15 21 -9 0 7 5 6 14 -2 10 -10 11 -15 2
-21 -7 -6 -6 -7 4 -4 8 2 14 13 12 23 -2 19 -2 19 13 0 12 -16 12 -22 2 -34
-11 -13 -9 -14 13 -1 14 8 28 19 32 24 5 6 8 5 8 -3 0 -7 4 -10 10 -7 6 4 7
-1 3 -12 -5 -14 -3 -16 7 -6 15 14 43 5 33 -11 -4 -6 1 -5 11 3 20 17 65 21
63 6 -1 -5 4 -9 11 -7 8 1 11 -1 8 -6 -2 -4 -1 -14 5 -22 6 -10 9 -11 9 -2 0
6 5 12 11 12 5 0 8 -4 5 -8 -3 -5 1 -9 9 -9 8 0 12 3 10 7 -6 9 37 6 53 -4 7
-4 20 -2 30 6 15 12 16 11 3 -5 -8 -10 -20 -16 -28 -13 -8 3 -11 1 -8 -4 9
-15 26 -12 49 7 12 10 15 11 9 3 -7 -8 -13 -21 -13 -29 0 -14 2 -14 9 -2 12
18 39 23 48 9 4 -7 1 -8 -7 -3 -9 5 -11 4 -6 -4 5 -8 12 -9 19 -2 8 6 21 5 37
-4 30 -17 40 -18 40 -4 0 5 -4 8 -9 4 -5 -3 -12 -1 -15 4 -4 5 0 8 6 7 21 -3
39 -17 33 -25 -2 -5 7 -7 22 -5 14 1 30 9 34 16 5 7 9 8 9 2 0 -5 -6 -16 -12
-23 -11 -11 -10 -12 0 -7 7 4 20 2 29 -6 12 -9 15 -9 9 0 -4 6 -2 12 3 12 6 0
11 -5 11 -11 0 -5 5 -7 10 -4 6 4 7 12 4 18 -5 9 -4 9 6 0 7 -6 19 -9 28 -6
11 5 13 3 7 -8 -7 -11 -5 -11 10 1 10 8 16 10 12 4 -4 -7 0 -15 9 -18 8 -3 12
-2 9 3 -3 5 -1 12 5 16 5 3 10 1 10 -4 0 -6 5 -11 11 -11 5 0 8 3 6 8 -3 4 8
7 23 7 16 1 26 -3 24 -7 -3 -5 -9 -6 -14 -3 -5 3 -12 0 -16 -6 -4 -7 -3 -9 4
-5 5 3 13 0 15 -6 4 -10 6 -10 6 0 1 6 10 12 22 12 13 0 18 4 13 12 -4 7 -3 8
5 4 6 -4 9 -12 6 -17 -4 -5 1 -9 10 -9 8 0 18 -7 22 -16 4 -12 8 -13 14 -3 6
10 11 10 25 -2 16 -13 16 -12 4 8 -11 16 -17 19 -27 11 -8 -7 -13 -7 -13 0 0
14 28 23 35 11 4 -5 11 -6 17 -3 6 4 8 3 5 -2 -3 -6 3 -15 13 -22 14 -9 21 -9
26 0 4 6 3 8 -4 4 -6 -3 -13 -2 -16 2 -3 5 11 8 32 6 20 -1 38 -7 40 -13 2 -7
10 -4 20 6 16 15 17 15 20 -1 3 -13 7 -15 18 -5 11 9 14 8 14 -2 0 -11 2 -11
10 1 6 9 13 11 18 5 10 -13 35 -18 27 -5 -3 5 -1 10 4 10 6 0 11 -6 11 -12 0
-9 4 -8 10 2 8 12 10 12 10 1 0 -10 3 -11 13 -2 8 6 17 8 21 4 3 -4 16 -8 27
-10 14 -2 18 1 13 9 -6 10 -4 10 8 0 14 -11 18 -10 27 5 8 14 10 15 11 3 0 -9
9 -16 19 -17 14 -1 18 3 15 15 -5 14 -4 14 6 -1 9 -14 15 -16 26 -6 11 9 14 9
14 -2 0 -8 6 -5 15 7 13 16 14 16 9 1 -5 -13 -2 -16 10 -11 9 3 13 11 9 18 -4
6 1 5 10 -2 9 -8 20 -11 26 -8 5 3 12 0 14 -6 4 -10 6 -9 6 1 1 11 4 11 18 0
15 -12 16 -12 11 2 -5 13 -2 16 13 12 12 -3 19 0 19 8 1 11 3 10 10 -1 5 -9
20 -15 37 -14 15 1 41 3 56 3 16 1 26 5 22 11 -3 6 1 7 10 4 11 -5 14 -2 9 12
-5 18 -5 18 6 2 11 -18 36 -26 26 -9 -4 5 4 7 16 3 21 -5 21 -6 2 -14 -18 -7
-18 -8 1 -6 11 2 27 -2 35 -7 13 -8 13 -7 1 9 -12 14 -12 19 -1 29 10 9 11 9
6 0 -5 -9 0 -13 14 -13 12 0 19 4 16 8 -3 5 1 9 9 9 8 0 12 -4 9 -9 -8 -13 20
-9 35 5 11 10 13 10 7 0 -4 -7 -2 -13 3 -13 6 0 11 5 11 10 0 6 5 10 11 10 5
0 8 -4 5 -9 -4 -5 2 -8 11 -6 10 2 22 4 26 4 5 1 5 5 2 11 -3 6 1 7 9 4 9 -3
13 -11 9 -18 -3 -6 -1 -6 8 1 16 16 33 17 23 1 -4 -7 -3 -8 5 -4 7 4 9 17 6
29 -5 17 -4 19 4 7 6 -8 11 -11 11 -7 0 4 10 2 23 -4 19 -11 20 -10 10 3 -11
12 -8 14 17 10 21 -3 30 0 30 9 0 11 2 11 10 -1 9 -13 11 -13 20 0 8 13 10 13
10 1 0 -11 3 -12 12 -3 8 8 16 8 32 0 18 -9 19 -9 9 3 -9 12 -6 14 21 13 18
-1 39 -5 46 -9 9 -6 11 -4 5 5 -6 10 -3 12 12 8 12 -3 20 0 20 8 0 7 -5 10
-11 7 -6 -3 -7 -2 -3 2 10 11 39 16 32 5 -3 -4 2 -11 11 -14 8 -3 13 -2 10 3
-3 5 1 14 9 21 13 11 14 10 8 -6 -6 -17 -5 -17 10 -5 9 7 24 10 33 7 13 -5 15
-2 11 13 -3 14 -1 18 9 14 8 -3 12 -8 9 -12 -2 -4 2 -8 11 -8 10 0 12 7 8 21
-6 19 -6 19 10 3 21 -20 33 -23 17 -4 -8 10 -7 14 4 14 8 0 15 -5 15 -11 0 -6
5 -5 12 2 14 14 32 16 24 4 -3 -5 1 -9 9 -9 8 0 12 4 9 9 -3 4 2 18 10 30 9
12 16 18 16 12 0 -5 -5 -15 -11 -21 -7 -7 -6 -12 6 -17 11 -4 14 -2 9 6 -5 8
-2 9 9 5 11 -4 22 2 32 16 8 12 15 17 15 12 0 -6 5 -3 10 5 8 12 10 12 11 -5
0 -11 3 -14 6 -7 4 10 8 10 19 1 12 -9 13 -9 9 4 -4 8 -1 18 6 23 7 4 10 3 5
-4 -3 -6 -1 -14 5 -18 8 -4 9 -3 5 4 -6 11 5 16 26 13 4 0 5 6 2 14 -4 8 -1
15 5 15 6 0 11 -6 12 -12 0 -7 4 -4 9 7 8 18 9 18 9 -5 1 -19 3 -22 10 -10 6
8 7 19 5 25 -3 5 1 2 9 -8 13 -16 15 -16 21 -2 4 11 2 14 -6 9 -7 -4 -8 -3 -4
4 4 7 21 12 37 12 22 0 28 4 23 12 -5 8 0 7 11 -2 17 -13 18 -13 13 0 -4 11 0
16 13 17 13 1 16 -3 11 -15 -5 -15 -4 -15 12 1 10 9 21 15 26 12 4 -3 6 5 4
17 -2 13 -2 17 2 11 4 -10 11 -10 26 -2 16 8 23 8 30 -2 7 -11 8 -9 4 5 -5 13
-2 17 9 12 8 -3 15 -1 15 5 0 6 4 7 10 4 5 -3 7 0 4 8 -6 17 25 19 45 3 11 -8
13 -8 7 2 -4 7 -2 12 4 12 6 0 8 5 4 12 -5 7 -3 8 6 3 10 -6 12 -4 6 10 -5 14
-4 16 7 7 10 -9 17 -8 27 1 10 10 12 9 6 -3 -4 -8 2 -4 15 10 l22 25 -8 -24
c-6 -21 -5 -22 8 -10 8 8 12 19 10 26 -3 7 3 10 16 6 12 -3 21 -1 21 6 0 6 5
11 11 11 5 0 7 -6 3 -12 -6 -10 -4 -10 8 0 13 10 17 10 22 0 3 -7 3 -3 1 9 -6
21 7 35 33 39 6 1 10 -2 7 -7 -4 -5 1 -6 9 -3 8 3 13 11 10 18 -3 9 3 13 18
13 41 1 48 3 48 14 0 8 -6 7 -17 -2 -16 -13 -17 -12 -4 4 13 17 15 17 33 0 18
-16 19 -16 12 2 -6 14 -4 16 6 10 9 -5 11 -4 6 3 -4 7 -2 12 3 12 6 0 11 -5
11 -12 0 -6 3 -8 6 -5 4 4 1 14 -6 22 -7 9 -9 15 -4 14 27 -5 55 2 48 13 -4 7
-3 8 4 4 8 -4 12 0 12 10 0 16 1 16 16 -2 8 -10 13 -14 10 -8 -7 13 21 27 35
19 5 -4 6 1 3 9 -3 9 -11 13 -17 9 -6 -3 -7 -1 -3 6 6 9 11 9 22 0 11 -9 14
-8 14 5 0 10 5 14 10 11 6 -4 7 -11 4 -17 -5 -7 -2 -8 5 -4 7 5 10 14 7 21 -7
20 4 26 28 13 19 -10 20 -10 7 6 -8 9 -11 19 -7 23 3 3 6 1 6 -5 0 -6 9 -10
19 -9 11 0 17 5 15 9 -3 4 0 8 6 8 6 0 8 6 4 13 -4 6 3 3 17 -8 13 -11 18 -13
12 -5 -7 8 -13 21 -13 29 0 10 3 12 8 6 4 -5 13 -11 21 -13 12 -3 12 -1 0 14
-13 16 -12 16 11 4 22 -12 24 -12 12 2 -10 13 -10 18 -1 24 7 4 9 3 6 -3 -4
-6 -1 -13 7 -16 10 -4 13 1 12 18 -2 16 1 22 10 18 8 -3 14 -9 14 -14 0 -6 6
-4 14 3 7 7 11 19 9 26 -4 9 2 11 20 8 21 -4 24 -1 20 17 -5 22 -5 22 11 2 15
-19 16 -19 6 9 -9 25 -9 27 4 17 11 -9 16 -9 21 0 6 8 10 7 16 -2 6 -10 9 -11
9 -1 0 32 21 55 33 38 5 -7 7 -3 4 10 -4 17 0 21 22 20 20 -1 27 4 29 22 2 12
8 20 13 16 5 -3 6 -10 3 -16 -4 -7 -2 -8 4 -4 9 5 9 13 1 28 -9 16 -8 19 3 12
19 -12 39 -14 32 -3 -3 5 2 19 10 31 9 12 16 18 16 12 0 -5 -6 -16 -12 -23
-11 -10 -10 -11 5 -6 9 4 17 13 17 20 0 8 4 17 10 20 6 3 7 -1 4 -12 -5 -17
-5 -17 6 0 6 9 15 15 20 12 4 -3 6 5 3 17 -4 18 -2 20 5 9 9 -12 13 -13 26 -1
9 7 14 15 11 18 -2 3 5 13 16 23 11 9 20 20 19 23 -1 4 0 10 3 14 2 4 2 1 1
-5 -2 -7 1 -13 6 -13 6 0 10 7 10 15 0 8 7 15 16 15 10 0 14 5 10 16 -3 8 -2
12 4 9 6 -3 10 0 10 7 0 9 3 9 10 -2 7 -11 10 -11 10 -2 0 7 6 10 13 7 6 -4 4
0 -6 8 -16 13 -16 15 -2 21 9 3 13 2 10 -4 -3 -6 -1 -10 4 -10 6 0 11 5 11 12
0 20 31 47 48 41 12 -5 14 -2 9 11 -5 11 -3 15 5 10 8 -5 9 -2 4 11 -5 15 -4
16 9 5 14 -11 17 -10 22 8 3 13 10 19 17 15 6 -4 5 1 -3 10 -12 15 -12 17 4
11 12 -5 16 -4 12 3 -4 6 0 13 8 16 10 4 12 1 9 -11 -5 -15 -4 -15 6 1 6 9 9
21 5 26 -3 5 4 12 15 16 11 4 18 10 15 15 -3 5 0 12 6 16 7 4 9 3 5 -4 -3 -6
-2 -14 4 -17 6 -4 10 -3 9 2 -4 22 2 43 11 38 6 -3 10 -1 10 5 0 6 5 8 13 4 9
-6 9 -4 -1 8 -12 14 -10 16 10 11 13 -3 20 -3 16 2 -4 4 0 14 8 22 8 8 12 19
9 24 -4 5 1 6 9 3 9 -3 13 -11 9 -17 -4 -6 -1 -7 6 -3 9 6 8 13 -5 27 -16 17
-15 18 5 14 14 -3 21 1 21 12 0 12 3 13 14 4 11 -9 13 -4 10 26 -2 25 0 32 7
23 6 -10 9 -11 9 -2 0 6 8 12 18 12 16 1 16 1 -1 14 -16 12 -16 14 -2 20 9 3
13 2 10 -4 -3 -5 3 -8 14 -7 14 1 17 5 10 13 -7 8 -6 14 1 19 6 4 9 13 7 20
-4 8 4 12 21 11 24 -1 27 3 27 30 -1 27 2 31 22 29 24 -2 32 10 11 18 -7 3 -4
6 7 6 31 1 46 20 34 43 -5 10 -8 18 -7 19 2 0 12 2 22 4 24 5 36 23 28 44 -5
14 -4 14 11 2 15 -12 17 -12 11 4 -6 14 -4 16 7 11 8 -4 6 -1 -4 7 -16 13 -16
15 -2 21 9 3 13 2 10 -4 -3 -6 -2 -10 2 -10 5 0 14 9 21 21 12 19 11 20 -10
14 -18 -5 -20 -4 -8 4 8 6 23 11 33 11 10 0 16 4 12 10 -3 5 -13 7 -23 4 -14
-5 -14 -4 -3 4 8 6 20 8 27 5 6 -2 15 1 20 8 4 7 3 10 -3 6 -6 -4 -14 0 -17 9
-3 8 -2 12 4 9 5 -3 22 5 37 19 15 15 24 26 20 26 -4 0 -3 9 3 20 6 11 15 18
21 15 5 -4 9 -3 8 2 -3 17 14 53 22 47 5 -3 9 0 9 5 0 6 -5 11 -11 11 -5 0 -7
5 -4 10 4 6 11 7 17 4 6 -4 6 1 -1 14 -8 15 -8 23 1 28 6 4 8 3 5 -3 -4 -6 0
-16 7 -22 12 -10 14 -8 9 11 -4 18 -3 20 6 8 6 -8 11 -10 11 -4 0 5 -6 16 -12
23 -11 11 -10 12 1 6 11 -6 13 -4 8 8 -3 9 -2 19 4 22 5 4 7 10 4 15 -3 5 -1
11 4 14 5 4 12 2 15 -3 4 -5 2 -12 -4 -16 -6 -4 -7 -11 -4 -17 5 -7 2 -8 -6
-3 -9 6 -11 4 -6 -4 8 -12 20 -7 22 7 2 21 28 60 37 55 6 -4 7 -1 2 7 -6 10
-11 9 -22 -5 -7 -11 -13 -13 -13 -7 0 7 0 14 0 17 0 3 1 4 3 3 6 -4 48 24 43
29 -3 4 -1 12 6 20 8 10 8 13 -3 10 -8 -2 -11 -2 -6 0 4 3 5 8 2 13 -3 4 3 7
13 6 10 0 16 5 14 13 -2 8 2 17 7 21 6 3 12 19 13 34 1 15 9 33 18 39 13 11
13 10 1 -5 -9 -12 -10 -18 -2 -18 12 0 13 2 15 45 1 17 6 31 12 32 5 1 8 -6 6
-15 -2 -14 -1 -14 7 -3 5 8 7 21 3 29 -4 11 -2 13 9 7 11 -7 12 -6 2 6 -9 11
-8 19 3 34 8 11 17 19 19 18 7 -4 4 11 -2 17 -4 3 -3 -1 2 -9 6 -10 4 -12 -4
-7 -12 8 -7 20 10 22 22 3 23 5 9 14 -13 9 -13 12 2 24 10 7 14 17 10 21 -4 5
1 5 10 2 12 -4 15 -2 12 7 -3 8 -1 17 5 21 6 3 11 11 11 17 0 6 -7 5 -17 -3
-16 -12 -17 -12 -6 2 7 9 9 20 5 24 -4 5 -2 5 4 2 7 -4 15 0 18 9 3 8 10 13
14 10 4 -2 7 9 6 25 -2 24 1 29 14 25 15 -5 15 -4 0 8 -20 15 -25 31 -6 20 8
-5 9 -2 5 9 -3 10 -2 17 4 17 6 0 7 5 3 12 -4 6 -3 8 3 5 11 -7 23 13 23 36 0
7 -5 6 -11 -3 -9 -13 -10 -13 -6 0 2 8 8 14 13 13 15 -2 34 46 22 54 -6 3 -8
2 -5 -4 3 -5 0 -10 -8 -10 -13 0 -12 4 2 19 17 19 28 24 18 8 -4 -6 1 -7 11
-3 11 4 13 8 6 11 -14 4 -17 42 -3 42 5 0 11 7 14 14 4 10 1 13 -9 9 -7 -3
-14 0 -14 6 0 6 9 11 20 11 16 0 19 6 16 30 -2 16 0 27 4 25 4 -3 11 2 14 11
3 9 11 12 18 8 9 -5 9 -3 -1 9 -14 18 -26 23 -16 8 3 -5 1 -12 -4 -15 -10 -7
-9 9 4 37 4 10 2 24 -6 33 -10 12 -10 15 2 12 8 -2 13 3 11 12 -2 8 0 11 4 7
12 -12 14 -38 2 -31 -7 5 -8 2 -4 -5 18 -28 31 22 14 52 -8 15 -7 18 3 12 9
-6 11 -3 6 8 -3 9 -2 19 4 23 7 4 6 10 -1 19 -9 11 -6 13 12 9 13 -2 17 -2 11
2 -7 3 -13 10 -13 15 0 6 4 8 9 4 5 -3 13 0 17 6 4 8 3 9 -4 5 -7 -4 -12 -2
-12 3 0 6 5 11 12 11 9 0 9 3 0 12 -9 9 -8 16 4 29 10 11 12 19 5 23 -16 10
-1 35 17 30 14 -5 14 -4 -1 6 -9 6 -15 15 -12 21 4 5 1 9 -4 9 -6 0 -11 6 -11
13 1 6 10 1 22 -13 13 -15 19 -18 15 -8 -3 10 -2 20 3 23 6 4 10 12 9 18 0 9
-2 9 -6 0 -7 -18 -20 -16 -20 2 0 8 6 15 13 15 9 0 10 8 4 29 -7 25 -6 29 8
23 15 -5 16 -4 2 13 -9 11 -10 16 -2 11 6 -4 12 -2 12 3 0 6 -5 11 -10 11 -6
0 -2 10 10 22 11 12 20 26 20 31 0 5 -9 -1 -20 -14 -10 -13 -19 -19 -20 -13 0
5 5 15 11 21 5 5 11 24 11 41 1 17 4 30 7 27 4 -2 13 1 21 7 12 8 12 9 -2 4
-10 -3 -20 -1 -23 3 -2 5 5 11 16 14 17 5 19 9 9 27 -6 11 -16 17 -22 14 -7
-4 -8 -3 -4 5 4 6 12 9 17 6 5 -4 9 -1 9 5 0 6 5 8 12 4 7 -4 8 -3 4 4 -4 7
-15 12 -24 12 -13 0 -13 2 4 14 19 15 19 15 -1 30 -16 13 -17 15 -2 10 13 -5
16 -2 10 12 -4 12 -3 15 5 10 8 -5 10 -2 6 8 -3 9 -9 16 -13 16 -4 0 -8 7 -8
16 0 15 2 14 14 -1 7 -10 16 -15 20 -11 4 4 2 10 -4 14 -7 4 -14 31 -16 59 -2
30 0 50 5 47 5 -3 6 -13 4 -22 -3 -10 -1 -24 5 -32 8 -12 9 -9 4 9 -5 17 -4
21 5 16 9 -6 9 -3 1 12 -6 11 -7 23 -4 27 9 9 12 156 3 151 -4 -2 -7 2 -7 10
0 8 4 12 9 9 4 -3 8 -1 8 5 0 5 -5 13 -10 16 -6 4 -7 12 -3 18 14 22 14 49 1
41 -10 -6 -11 -4 0 7 16 17 16 43 0 33 -10 -6 -10 -4 -2 7 13 16 12 68 -1 88
-5 9 -4 12 2 8 6 -4 10 8 11 29 1 25 -2 33 -11 27 -9 -5 -9 -3 -1 8 17 23 12
188 -6 199 -13 8 -12 10 3 10 10 0 15 5 12 10 -4 6 -12 8 -18 4 -7 -3 -4 1 5
8 15 13 15 15 0 27 -14 10 -14 11 -1 7 16 -4 20 26 6 40 -12 12 -8 26 5 18 7
-4 8 -3 4 5 -4 6 -12 9 -17 6 -5 -3 -6 1 -3 10 4 10 1 14 -7 12 -8 -2 -11 -2
-7 0 5 3 3 14 -3 25 -8 15 -8 19 0 14 6 -4 11 0 11 8 0 9 5 16 12 16 6 0 8 3
5 6 -4 4 -14 1 -23 -7 -16 -13 -16 -12 -6 8 15 28 15 36 0 27 -7 -4 -4 3 7 16
11 13 15 20 8 16 -7 -4 -17 2 -23 15 -8 15 -9 19 -1 15 6 -4 11 0 11 9 0 10 5
14 13 9 9 -5 9 -4 0 6 -10 11 -15 11 -30 -1 -16 -12 -15 -11 1 9 11 12 16 22
11 22 -4 0 -2 6 4 13 8 10 7 14 -4 14 -8 0 -12 -4 -9 -8 2 -4 1 -10 -4 -13 -4
-2 -8 6 -8 19 0 16 4 21 14 17 12 -4 12 -1 4 15 -6 11 -9 23 -6 25 2 3 -4 11
-13 19 -16 13 -17 12 -5 -2 10 -14 10 -18 -1 -22 -9 -3 -13 2 -12 14 2 28 12
34 32 18 16 -12 17 -12 6 2 -7 9 -10 19 -7 22 4 4 -3 4 -16 2 -18 -3 -20 -2
-10 10 9 11 9 15 1 15 -6 0 -11 5 -11 11 0 5 4 8 9 4 5 -3 13 -1 16 5 4 6 1 9
-6 8 -6 -2 -14 3 -17 11 -3 8 0 11 7 7 6 -4 11 -2 11 3 0 6 -4 11 -10 11 -5 0
-10 6 -10 14 0 8 -6 17 -12 20 -8 3 -7 5 2 3 9 -1 15 2 15 8 0 5 -4 9 -9 7 -5
-2 -6 5 -2 14 4 11 2 15 -8 11 -12 -5 -13 -1 -6 18 7 20 6 25 -5 25 -8 0 -15
5 -15 11 0 5 5 7 10 4 6 -3 10 1 10 9 0 9 -4 16 -10 16 -5 0 -10 7 -10 16 0 8
4 13 9 10 8 -5 8 15 1 34 -1 3 -2 8 -1 12 0 4 -5 5 -13 2 -7 -3 -16 2 -20 11
-5 13 -1 15 17 11 12 -3 16 -3 9 0 -6 3 -10 9 -7 14 3 4 -2 13 -10 20 -9 8
-15 8 -15 2 0 -6 5 -13 10 -15 6 -3 5 -4 -2 -3 -13 3 -14 12 -4 53 3 16 1 20
-10 16 -10 -4 -12 0 -8 11 3 9 11 13 17 9 6 -3 7 -1 3 5 -4 7 -13 12 -19 12
-17 0 -39 37 -27 45 6 3 10 11 10 16 0 6 -4 7 -10 4 -5 -3 -10 1 -10 9 0 9 -6
16 -12 16 -10 0 -9 3 1 9 8 5 9 11 3 15 -5 3 -8 19 -7 36 2 22 -2 30 -14 30
-14 0 -14 2 -1 10 12 8 12 10 1 10 -10 0 -11 3 -2 14 9 10 7 17 -6 27 -9 8
-14 9 -10 2 4 -6 4 -14 -1 -17 -5 -3 -9 1 -10 9 -1 8 -3 22 -4 30 -1 8 -5 15
-10 15 -4 0 -8 5 -8 11 0 8 4 8 14 0 11 -9 16 -9 22 0 4 8 3 9 -4 5 -7 -4 -12
-1 -12 8 0 9 -8 16 -17 17 -15 0 -15 2 2 9 11 5 14 9 7 9 -7 1 -11 5 -8 10 3
4 -1 17 -10 27 -14 18 -15 18 -5 -3 8 -16 7 -22 -3 -26 -9 -4 -12 0 -9 13 3
10 0 21 -6 24 -8 5 -8 13 -1 27 8 13 7 19 0 19 -6 0 -8 5 -4 12 4 6 -1 17 -10
24 -9 6 -19 25 -20 41 -2 15 -9 28 -16 28 -7 0 -15 7 -17 15 -4 13 -3 13 6 0
8 -11 9 -8 7 15 -2 17 -8 29 -14 28 -5 -1 -18 7 -28 19 -19 21 -19 21 2 10 16
-9 21 -8 21 3 0 8 -5 13 -11 12 -5 -1 -11 3 -12 8 -5 29 -17 55 -26 55 -5 0
-8 8 -7 18 3 32 -1 35 -19 19 -15 -14 -19 -15 -19 -2 0 8 4 12 9 9 4 -3 8 4 8
15 0 12 -5 21 -11 21 -5 0 -7 -4 -4 -10 10 -16 -1 -11 -16 7 -8 9 -9 14 -4 11
6 -4 17 -3 25 3 13 7 13 9 -1 9 -16 0 -44 48 -34 58 3 3 -9 13 -25 23 -17 11
-30 24 -30 31 0 6 6 3 14 -8 8 -10 18 -16 22 -11 4 4 2 7 -4 7 -7 0 -12 9 -12
21 0 13 -4 18 -12 13 -8 -5 -9 -2 -4 11 5 15 4 16 -9 5 -18 -15 -20 0 -2 19
10 11 10 13 0 7 -7 -4 -13 -2 -13 4 0 6 -4 8 -10 5 -7 -4 -7 3 0 20 5 14 6 24
1 21 -5 -4 -12 0 -15 6 -3 7 -3 3 0 -9 3 -13 1 -23 -4 -23 -6 0 -9 14 -8 31 1
18 -5 41 -16 54 -9 12 -14 26 -10 30 4 5 1 5 -6 1 -11 -6 -10 -12 5 -29 12
-15 13 -18 2 -9 -9 6 -20 8 -24 4 -5 -4 -5 -2 -1 5 3 6 2 14 -3 18 -6 3 -8 12
-5 19 3 8 -3 20 -14 27 -11 8 -21 19 -23 24 -2 6 -8 9 -12 7 -5 -1 -6 2 -2 7
3 6 13 7 23 4 10 -4 6 4 -11 20 -15 15 -33 27 -40 27 -8 0 -7 4 2 9 12 7 12
13 3 24 -7 7 -9 16 -7 19 3 3 -6 4 -20 3 -22 -3 -24 -1 -14 18 7 12 8 19 4 15
-4 -4 -14 0 -22 8 -8 8 -20 11 -26 7 -7 -3 -9 -3 -5 2 4 4 3 17 -3 28 -9 15
-8 18 2 12 7 -5 10 -4 5 3 -3 5 0 13 6 16 7 3 0 2 -16 -1 -20 -4 -27 -3 -22 6
4 6 2 11 -5 11 -8 0 -7 5 2 17 10 11 10 14 2 9 -8 -4 -13 -2 -13 4 0 7 -7 10
-15 7 -8 -4 -17 -1 -21 5 -4 7 -3 8 4 4 7 -4 12 -2 12 3 0 6 -5 11 -11 11 -5
0 -7 5 -3 12 5 8 2 9 -9 5 -11 -4 -17 -1 -17 9 0 9 5 12 13 8 8 -5 8 -2 -2 9
-15 18 -26 23 -16 7 3 -5 1 -10 -4 -10 -6 0 -11 8 -11 19 0 21 -63 74 -75 63
-5 -4 -5 -1 -1 6 6 11 12 10 27 -4 11 -9 22 -14 26 -11 3 4 1 7 -6 7 -7 0 -9
5 -6 10 4 6 1 9 -7 8 -7 -2 -12 2 -11 9 2 8 -4 10 -14 6 -13 -5 -15 -2 -10 11
5 14 3 17 -8 12 -9 -3 -15 0 -15 8 0 15 -27 30 -50 28 -10 -1 -11 0 -2 4 6 3
9 11 5 17 -3 7 4 3 17 -8 l24 -20 -22 29 c-12 15 -19 33 -15 39 3 6 1 7 -6 3
-6 -4 -9 -11 -6 -16 3 -5 1 -12 -5 -15 -6 -4 -10 -3 -9 2 3 19 -2 33 -12 33
-5 0 -7 -4 -4 -10 3 -5 1 -10 -4 -10 -13 0 -14 6 -2 29 6 11 6 22 -1 32 -8 11
-9 11 -4 -3 3 -10 1 -18 -4 -18 -6 0 -10 4 -10 10 0 5 -5 9 -12 7 -7 -1 -12 3
-13 10 0 15 -14 28 -28 28 -7 0 -12 12 -12 27 0 14 -4 30 -8 34 -4 5 -5 1 -2
-8 4 -9 2 -18 -2 -21 -5 -3 -9 3 -10 14 -2 20 -33 71 -33 53 0 -5 6 -16 13
-24 10 -12 9 -12 -4 -2 -9 6 -18 9 -21 7 -3 -3 -4 6 -3 20 2 16 -1 23 -8 18
-7 -4 -8 0 -4 11 4 10 3 15 -4 11 -5 -4 -7 -16 -4 -28 4 -14 -2 -9 -15 12 -12
19 -28 40 -36 48 -8 8 -11 19 -8 25 4 6 2 8 -4 4 -5 -3 -13 0 -15 6 -4 9 -6
10 -6 1 -1 -6 4 -15 9 -18 6 -3 10 -12 10 -18 0 -7 -5 -4 -11 6 -6 9 -14 15
-18 12 -5 -2 -7 7 -5 20 2 19 -3 26 -22 31 -19 5 -23 11 -20 30 3 14 1 22 -5
19 -5 -4 -7 -11 -4 -16 4 -5 1 -9 -4 -9 -11 0 -15 15 -12 34 1 5 -4 4 -11 -2
-10 -8 -20 -6 -38 8 -14 11 -21 20 -16 20 5 0 18 -7 28 -17 10 -9 18 -14 18
-11 0 8 -38 49 -44 49 -20 -3 -26 1 -26 13 0 21 -21 31 -31 15 -7 -11 -9 -9
-9 6 -1 21 -30 67 -30 48 0 -7 5 -15 10 -18 6 -3 10 -11 10 -17 0 -6 -9 -1
-20 12 -11 12 -17 27 -14 31 3 5 -2 9 -11 9 -9 0 -13 5 -10 10 3 6 1 10 -4 10
-6 0 -11 -4 -11 -10 0 -5 -5 -10 -11 -10 -5 0 -8 4 -5 8 8 14 -10 33 -33 35
-16 1 -24 9 -28 28 -5 27 -16 31 -42 15 -10 -6 -12 -5 -7 2 4 7 3 12 -3 12 -5
0 -8 8 -6 18 3 20 -28 24 -55 8 -12 -7 -13 -6 -2 5 18 19 15 40 -5 32 -13 -5
-15 -2 -10 13 7 18 6 18 -7 2 -19 -25 -29 -22 -15 3 6 12 7 19 1 15 -5 -3 -20
3 -32 14 -28 25 -37 26 -19 3 11 -15 11 -16 0 -6 -7 6 -21 9 -30 6 -9 -3 -12
-1 -6 4 6 4 17 17 25 27 15 19 14 19 -12 2 -27 -18 -46 -8 -32 17 5 9 4 9 -6
0 -14 -13 -43 -6 -34 9 4 6 10 5 15 -3 5 -8 9 -9 9 -3 0 6 -8 18 -17 25 -11
10 -14 10 -9 2 4 -7 2 -13 -3 -13 -6 0 -11 5 -11 10 0 6 -9 10 -19 10 -11 0
-23 9 -26 21 -4 12 -10 18 -14 13 -3 -5 -12 -10 -20 -12 -12 -3 -12 -1 0 14
13 16 12 16 -11 4 -23 -12 -24 -12 -11 3 12 15 11 17 -3 17 -9 0 -16 -5 -16
-12 0 -6 -3 -8 -6 -5 -4 4 -2 12 4 20 8 10 6 13 -9 14 -12 1 -17 -3 -13 -9 4
-7 2 -8 -5 -4 -6 4 -9 12 -5 17 3 6 0 9 -7 8 -23 -4 -49 12 -42 25 4 6 -1 5
-11 -3 -9 -8 -16 -10 -15 -5 4 22 -2 35 -13 28 -7 -5 -9 -2 -5 8 6 17 -8 19
-32 4 -10 -6 -12 -5 -7 2 5 8 -1 12 -14 12 -14 0 -19 -4 -14 -12 4 -8 3 -10
-2 -5 -5 5 -10 13 -10 18 -1 5 -2 17 -4 27 -1 11 -3 13 -7 4 -4 -10 -8 -9 -17
4 -10 13 -15 14 -21 4 -6 -9 -4 -11 5 -5 9 5 11 4 6 -4 -10 -16 -26 -4 -19 14
4 11 1 13 -11 9 -11 -4 -15 -2 -11 8 4 9 0 15 -9 15 -8 0 -12 -7 -9 -16 3 -12
2 -12 -7 2 -6 9 -18 17 -27 17 -11 0 -13 3 -5 13 8 9 7 13 -6 14 -26 2 -46 8
-61 17 -9 6 -12 5 -7 -2 3 -6 2 -14 -4 -17 -6 -4 -9 -1 -8 7 2 7 -5 12 -15 12
-10 -1 -16 0 -13 3 10 11 -19 31 -31 22 -7 -7 -14 -6 -19 2 -5 8 -3 9 5 4 7
-4 5 4 -4 19 -19 29 -27 34 -19 11 5 -11 2 -13 -10 -9 -9 3 -16 11 -16 18 0 6
-5 4 -10 -4 -9 -13 -10 -13 -10 0 0 13 -1 13 -10 0 -8 -13 -10 -13 -10 2 0 9
-5 20 -12 24 -8 5 -9 2 -5 -9 3 -9 2 -19 -4 -22 -5 -4 -8 -1 -7 7 2 7 -3 12
-11 10 -12 -3 -12 0 -1 13 7 8 10 18 6 22 -3 3 -6 1 -6 -7 0 -10 -3 -10 -15 0
-13 11 -15 10 -9 -6 5 -17 4 -17 -8 -4 -24 27 -71 65 -64 53 4 -8 1 -13 -8
-13 -9 0 -16 5 -16 10 0 6 -5 10 -11 10 -5 0 -7 -4 -4 -10 3 -5 1 -10 -4 -10
-6 0 -11 8 -12 18 0 14 -2 14 -9 -3 -6 -14 -9 -16 -10 -5 -2 8 -2 19 -1 23 1
5 -3 6 -9 2 -6 -3 -8 -10 -5 -15 3 -5 0 -12 -6 -16 -7 -4 -10 -3 -6 2 3 5 -1
20 -10 34 -14 24 -14 24 -9 2 4 -19 2 -21 -10 -11 -7 6 -12 15 -9 18 2 4 -2 8
-10 8 -8 0 -12 -3 -10 -7 2 -4 -3 -7 -11 -7 -8 0 -13 6 -10 12 2 6 -2 12 -9
12 -7 0 -12 -5 -11 -11 2 -6 1 -8 -1 -3 -3 4 -8 5 -13 2 -4 -3 -7 3 -6 13 1
11 -5 16 -16 14 -10 -2 -18 3 -18 9 0 7 -3 9 -6 6 -4 -4 -1 -14 7 -23 13 -16
12 -16 -8 -3 -13 8 -23 18 -23 24 0 5 -5 3 -10 -5 -8 -12 -10 -12 -11 5 l0 20
-9 -20 c-5 -11 -9 -15 -9 -9 -1 7 -8 15 -17 18 -11 4 -15 2 -11 -7 3 -8 -1
-14 -8 -14 -10 0 -11 7 -5 23 12 30 2 36 -26 17 -22 -14 -24 -14 -30 1 -3 9
-10 16 -16 16 -5 0 -6 -5 -3 -11 8 -12 -36 11 -48 26 -5 6 -5 -1 -2 -15 5 -19
4 -21 -4 -10 -6 8 -14 15 -18 16 -25 2 -62 17 -59 23 3 4 -5 8 -17 8 -17 2
-19 0 -7 -7 8 -5 11 -10 6 -10 -5 0 -18 8 -28 17 -15 14 -18 14 -13 2 4 -10 0
-16 -9 -16 -8 0 -12 5 -9 10 4 6 -1 8 -11 4 -11 -4 -15 -3 -10 4 4 8 -1 9 -17
4 -21 -7 -22 -6 -10 8 7 9 18 14 24 10 6 -3 7 -1 3 5 -5 9 -12 9 -26 0 -14 -9
-22 -9 -33 0 -12 10 -18 10 -30 -3 -18 -18 -28 -19 -24 -4 1 6 -4 14 -12 17
-9 3 -11 0 -6 -9 6 -11 5 -12 -6 -1 -16 14 -33 16 -24 2 3 -5 1 -10 -4 -10 -6
0 -11 5 -11 10 0 6 -11 10 -25 10 -14 0 -25 -5 -25 -12 0 -6 -3 -9 -6 -6 -3 4
-1 15 5 26 10 18 9 19 -13 9 -14 -7 -22 -15 -20 -19 2 -3 -1 -10 -8 -14 -7 -4
-10 -4 -6 1 4 4 3 14 -4 22 -9 11 -8 13 2 11 7 -2 15 4 17 12 3 9 1 11 -4 5
-13 -16 -75 -19 -84 -3 -7 10 -9 10 -9 1 0 -7 -5 -13 -11 -13 -5 0 -8 4 -5 9
7 11 -13 9 -31 -2 -8 -5 -13 -3 -13 5 0 9 -3 9 -10 -2 -8 -12 -10 -12 -10 -1
0 11 -3 11 -15 1 -13 -11 -20 -9 -42 11 -14 13 -23 18 -19 12 4 -8 1 -13 -8
-13 -8 0 -17 -6 -19 -12 -4 -10 -6 -10 -6 -1 -1 7 -8 10 -16 7 -8 -4 -15 -1
-15 4 0 6 9 9 20 7 11 -2 20 0 20 6 0 5 -10 7 -22 5 -13 -3 -27 -5 -31 -5 -5
-1 -6 -5 -2 -10 3 -5 0 -13 -6 -17 -8 -4 -9 -3 -5 4 4 7 2 12 -5 12 -8 0 -7 5
2 18 12 15 12 16 -2 5 -12 -10 -18 -10 -29 0 -10 10 -11 9 -5 -2 6 -10 2 -12
-13 -7 -43 14 -63 15 -60 4 3 -7 10 -14 18 -16 7 -3 10 0 6 7 -5 7 -1 9 10 4
15 -5 15 -7 0 -15 -15 -8 -62 12 -52 23 2 2 -11 4 -30 5 -19 0 -34 -3 -34 -8
0 -5 4 -7 8 -4 4 2 14 1 21 -4 9 -5 3 -7 -17 -7 -17 1 -28 5 -26 9 3 5 -2 9
-10 9 -9 1 -22 2 -28 3 -7 1 -18 -5 -25 -14 -6 -8 -15 -12 -19 -7 -4 4 -2 7 4
7 7 0 12 3 12 8 0 4 -32 7 -70 7 -39 0 -70 -3 -70 -7 0 -5 -5 -8 -11 -8 -5 0
-8 3 -5 8 2 4 -17 7 -44 7 -38 0 -46 -3 -42 -15 5 -13 4 -13 -12 -1 -22 19
-60 23 -46 6 7 -9 5 -17 -7 -26 -17 -13 -17 -13 -3 5 14 18 13 19 -3 13 -10
-4 -16 -3 -12 2 8 14 -8 21 -27 10z m12 -19 c-12 -22 -21 -26 -17 -7 2 10 17
26 25 27 1 0 -2 -9 -8 -20z m380 10 c0 -5 -5 -10 -11 -10 -5 0 -7 5 -4 10 3 6
8 10 11 10 2 0 4 -4 4 -10z m-433 -14 c0 -6 -10 -11 -23 -11 -15 0 -19 4 -13
11 5 6 15 11 22 11 8 0 14 -5 14 -11z m633 -1 c-7 -9 -15 -13 -19 -10 -3 3 1
10 9 15 21 14 24 12 10 -5z m-500 -5 c0 -5 -2 -10 -4 -10 -3 0 -8 5 -11 10 -3
6 -1 10 4 10 6 0 11 -4 11 -10z m1081 -57 c13 -16 12 -17 -3 -4 -14 11 -18 11
-18 1 0 -8 -3 -11 -6 -7 -5 5 3 27 10 27 2 0 10 -8 17 -17z m-1787 -18 c3 -8
1 -15 -4 -15 -6 0 -10 7 -10 15 0 8 2 15 4 15 2 0 6 -7 10 -15z m2139 -60 c-3
-9 -8 -14 -10 -11 -3 3 -2 9 2 15 9 16 15 13 8 -4z m403 -137 l19 -23 -24 20
-24 20 7 -20 c5 -15 4 -17 -5 -8 -6 6 -8 16 -5 22 9 15 10 14 32 -11z m177
-83 c-3 -9 -8 -14 -10 -11 -3 3 -2 9 2 15 9 16 15 13 8 -4z m-3843 -103 c0 -5
-7 -17 -15 -28 -14 -18 -14 -17 -4 9 12 27 19 34 19 19z m-351 -223 c-15 -9
-32 -2 -24 11 3 5 13 6 21 3 12 -4 13 -8 3 -14z m-399 -273 c0 -2 -7 -7 -16
-10 -8 -3 -12 -2 -9 4 6 10 25 14 25 6z m5641 -43 c13 -16 12 -17 -3 -4 -10 7
-18 15 -18 17 0 8 8 3 21 -13z m-5781 -63 c0 -5 -5 -10 -11 -10 -5 0 -7 5 -4
10 3 6 8 10 11 10 2 0 4 -4 4 -10z m-342 -347 c-6 -7 -12 -13 -13 -13 -2 0 -5
6 -8 13 -3 7 3 13 14 13 13 0 15 -3 7 -13z m-178 -187 c0 -2 -7 -7 -16 -10 -8
-3 -12 -2 -9 4 6 10 25 14 25 6z m7260 -440 c0 -3 -4 -8 -10 -11 -5 -3 -10 -1
-10 4 0 6 5 11 10 11 6 0 10 -2 10 -4z m-7709 -179 c-10 -9 -11 -8 -5 6 3 10
9 15 12 12 3 -3 0 -11 -7 -18z m-91 -157 c0 -5 -5 -10 -11 -10 -5 0 -7 5 -4
10 3 6 8 10 11 10 2 0 4 -4 4 -10z m0 -30 c0 -5 -2 -10 -4 -10 -3 0 -8 5 -11
10 -3 6 -1 10 4 10 6 0 11 -4 11 -10z m8105 -201 c-4 -5 -12 -9 -18 -8 -9 0
-8 2 1 6 6 2 9 10 6 15 -4 7 -2 8 5 4 6 -4 9 -12 6 -17z m45 -63 c0 -2 -8 -10
-17 -17 -16 -13 -17 -12 -4 4 13 16 21 21 21 13z m50 -130 c0 -2 -7 -7 -16
-10 -8 -3 -12 -2 -9 4 6 10 25 14 25 6z m95 -295 c3 -5 2 -12 -3 -15 -5 -3 -9
1 -9 9 0 17 3 19 12 6z m217 -1035 c7 4 8 2 4 -5 -10 -15 -26 -4 -25 17 1 15
2 15 6 -1 2 -9 9 -14 15 -11z m-9032 -116 c0 -5 -5 -10 -11 -10 -5 0 -7 5 -4
10 3 6 8 10 11 10 2 0 4 -4 4 -10z m4 -82 c-3 -4 -9 -8 -15 -8 -5 0 -9 4 -9 8
0 5 7 9 15 9 8 0 12 -4 9 -9z m9032 -494 c0 -15 -4 -20 -15 -16 -11 4 -11 7
-3 10 9 3 10 8 3 16 -8 9 -7 13 2 13 7 0 13 -10 13 -23z m4 -38 c0 -2 -7 -7
-16 -10 -8 -3 -12 -2 -9 4 6 10 25 14 25 6z m-35 -316 c3 -6 -1 -7 -9 -4 -18
7 -21 14 -7 14 6 0 13 -4 16 -10z m-8865 -410 c0 -5 -2 -10 -4 -10 -3 0 -8 5
-11 10 -3 6 -1 10 4 10 6 0 11 -4 11 -10z m157 -546 c0 -7 -6 -10 -14 -7 -7 3
-13 8 -13 12 0 4 6 8 13 8 8 0 14 -6 14 -13z m138 -332 c-3 -3 -11 0 -18 7 -9
10 -8 11 6 5 10 -3 15 -9 12 -12z m35 -62 c0 -5 -5 -10 -11 -10 -5 0 -7 5 -4
10 3 6 8 10 11 10 2 0 4 -4 4 -10z m7875 -402 c5 4 5 1 1 -6 -6 -10 -11 -10
-22 -1 -8 6 -14 14 -14 16 0 3 6 0 13 -6 8 -6 18 -7 22 -3z m-44 -81 c-8 -8
-14 -7 -23 2 -11 10 -9 11 6 5 15 -6 17 -4 11 6 -6 9 -4 11 4 5 9 -5 10 -10 2
-18z m-176 -255 c-10 -11 -35 -10 -42 0 -3 6 -1 8 5 4 6 -3 13 -2 17 4 4 6 11
8 16 4 6 -3 8 -9 4 -12z m-7184 -35 c-10 -9 -11 -8 -5 6 3 10 9 15 12 12 3 -3
0 -11 -7 -18z m109 -112 c10 -13 11 -18 1 -28 -10 -9 -11 -8 -6 5 5 13 0 21
-16 27 -16 6 -18 10 -8 10 9 1 22 -6 29 -14z m54 -81 c3 -8 10 -12 16 -9 5 3
10 4 10 1 0 -15 -20 -13 -35 4 -10 11 -13 20 -8 20 6 0 14 -7 17 -16z m336
-344 c0 -5 -5 -10 -11 -10 -5 0 -7 5 -4 10 3 6 8 10 11 10 2 0 4 -4 4 -10z
m35 -28 c-3 -3 -11 0 -18 7 -9 10 -8 11 6 5 10 -3 15 -9 12 -12z m5955 -126
c0 -3 -4 -8 -10 -11 -5 -3 -10 -1 -10 4 0 6 5 11 10 11 6 0 10 -2 10 -4z
m-5716 -65 c3 -5 -1 -11 -9 -14 -9 -4 -12 -1 -8 9 6 16 10 17 17 5z m91 -71
c-3 -5 -1 -10 5 -10 6 0 8 -4 5 -10 -10 -16 -23 -11 -20 8 5 23 4 22 11 22 3
0 2 -4 -1 -10z m5356 -57 c13 -16 12 -17 -3 -4 -10 7 -18 15 -18 17 0 8 8 3
21 -13z m-5106 -123 c4 -6 11 -7 17 -4 7 4 8 2 4 -4 -5 -9 -13 -9 -27 -2 -10
6 -19 13 -19 15 0 9 19 5 25 -5z m4092 -432 c-3 -8 -6 -5 -6 6 -1 11 2 17 5
13 3 -3 4 -12 1 -19z m-3106 -61 c-10 -9 -11 -8 -5 6 3 10 9 15 12 12 3 -3 0
-11 -7 -18z m2773 -58 c-3 -5 -10 -7 -15 -3 -5 3 -7 10 -3 15 3 5 10 7 15 3 5
-3 7 -10 3 -15z m-339 -68 c3 -5 2 -12 -3 -15 -5 -3 -9 1 -9 9 0 17 3 19 12 6z
m-1715 -35 c0 -3 -4 -8 -10 -11 -5 -3 -10 -1 -10 4 0 6 5 11 10 11 6 0 10 -2
10 -4z m1095 -45 c3 -5 2 -12 -3 -15 -5 -3 -9 1 -9 9 0 17 3 19 12 6z"/>
<path d="M5020 9100 c-8 -5 -12 -12 -9 -15 4 -3 12 1 19 10 14 17 11 19 -10 5z"/>
<path d="M3815 9071 c-3 -5 -2 -12 3 -15 5 -3 9 1 9 9 0 17 -3 19 -12 6z"/>
<path d="M3595 9021 c-3 -5 -2 -12 3 -15 5 -3 9 1 9 9 0 17 -3 19 -12 6z"/>
<path d="M5610 9007 c0 -2 6 -10 14 -16 11 -9 16 -9 22 1 4 7 4 10 -1 6 -4 -4
-14 -3 -22 3 -7 6 -13 9 -13 6z"/>
<path d="M6437 8719 c7 -7 15 -10 18 -7 3 3 -2 9 -12 12 -14 6 -15 5 -6 -5z"/>
<path d="M2660 8715 c0 -7 30 -13 34 -7 3 4 -4 9 -15 9 -10 1 -19 0 -19 -2z"/>
<path d="M2435 8590 c-4 -6 -10 -8 -15 -5 -4 3 -11 -2 -14 -10 -5 -13 -2 -13
24 0 30 16 38 25 21 25 -6 0 -13 -5 -16 -10z"/>
<path d="M6814 8526 c1 -8 5 -18 8 -22 4 -3 5 1 4 10 -1 8 -5 18 -8 22 -4 3
-5 -1 -4 -10z"/>
<path d="M6966 8437 c3 -10 9 -15 12 -12 3 3 0 11 -7 18 -10 9 -11 8 -5 -6z"/>
<path d="M2017 8343 c-4 -3 -7 -11 -7 -17 0 -6 5 -5 12 2 6 6 9 14 7 17 -3 3
-9 2 -12 -2z"/>
<path d="M1516 7951 c-4 -5 -2 -12 3 -15 5 -4 12 -2 15 3 4 5 2 12 -3 15 -5 4
-12 2 -15 -3z"/>
<path d="M1430 7859 c0 -5 5 -7 10 -4 6 3 10 8 10 11 0 2 -4 4 -10 4 -5 0 -10
-5 -10 -11z"/>
<path d="M1294 7739 c-8 -14 14 -19 25 -6 8 10 7 14 -5 14 -8 0 -17 -4 -20 -8z"/>
<path d="M7860 7682 c0 -4 10 -9 22 -9 18 -2 20 0 8 7 -18 12 -30 13 -30 2z"/>
<path d="M1228 7673 c6 -2 9 -10 6 -15 -4 -7 -2 -8 5 -4 13 9 5 26 -12 25 -9
0 -8 -2 1 -6z"/>
<path d="M1210 7641 c0 -7 -5 -9 -12 -5 -7 5 -8 3 -3 -5 5 -9 10 -10 18 -2 6
6 8 14 4 18 -4 3 -7 1 -7 -6z"/>
<path d="M960 7345 c-7 -9 -8 -15 -2 -15 5 0 12 7 16 15 3 8 4 15 2 15 -2 0
-9 -7 -16 -15z"/>
<path d="M8265 7201 c-6 -11 13 -26 22 -17 4 3 1 6 -6 6 -7 0 -9 5 -6 10 3 6
4 10 1 10 -3 0 -7 -4 -11 -9z"/>
<path d="M8405 7000 c-3 -5 -1 -10 4 -10 6 0 11 5 11 10 0 6 -2 10 -4 10 -3 0
-8 -4 -11 -10z"/>
<path d="M603 6805 c4 -5 -3 -15 -15 -22 -13 -7 -18 -12 -12 -13 5 0 18 6 29
13 15 12 16 15 4 22 -8 5 -10 4 -6 0z"/>
<path d="M453 6525 c0 -8 4 -12 9 -9 5 3 6 10 3 15 -9 13 -12 11 -12 -6z"/>
<path d="M400 6389 c0 -5 5 -7 10 -4 6 3 10 8 10 11 0 2 -4 4 -10 4 -5 0 -10
-5 -10 -11z"/>
<path d="M8838 6093 c7 -3 16 -2 19 1 4 3 -2 6 -13 5 -11 0 -14 -3 -6 -6z"/>
<path d="M8890 5971 c-10 -20 4 -41 17 -27 4 3 1 6 -6 6 -9 0 -9 5 -1 20 6 11
8 20 6 20 -3 0 -10 -9 -16 -19z"/>
<path d="M8895 5920 c3 -5 8 -10 11 -10 2 0 4 5 4 10 0 6 -5 10 -11 10 -5 0
-7 -4 -4 -10z"/>
<path d="M8900 5866 c0 -2 8 -10 18 -17 15 -13 16 -12 3 4 -13 16 -21 21 -21
13z"/>
<path d="M100 5515 c0 -7 30 -13 34 -7 3 4 -4 9 -15 9 -10 1 -19 0 -19 -2z"/>
<path d="M67 5263 c3 -7 6 -13 8 -13 2 0 5 6 8 13 3 8 -1 14 -8 14 -7 0 -11
-6 -8 -14z"/>
<path d="M9070 5040 c0 -5 5 -10 11 -10 5 0 7 5 4 10 -3 6 -8 10 -11 10 -2 0
-4 -4 -4 -10z"/>
<path d="M20 4380 c0 -5 5 -10 11 -10 5 0 7 5 4 10 -3 6 -8 10 -11 10 -2 0 -4
-4 -4 -10z"/>
<path d="M20 4259 c0 -5 5 -7 10 -4 6 3 10 8 10 11 0 2 -4 4 -10 4 -5 0 -10
-5 -10 -11z"/>
<path d="M39 4178 c-5 -18 -6 -38 -1 -34 7 8 12 36 6 36 -2 0 -4 -1 -5 -2z"/>
<path d="M58 3923 c7 -3 16 -2 19 1 4 3 -2 6 -13 5 -11 0 -14 -3 -6 -6z"/>
<path d="M75 3840 c-3 -5 -1 -10 4 -10 6 0 11 5 11 10 0 6 -2 10 -4 10 -3 0
-8 -4 -11 -10z"/>
<path d="M9051 3834 c0 -11 3 -14 6 -6 3 7 2 16 -1 19 -3 4 -6 -2 -5 -13z"/>
<path d="M118 3613 c7 -3 16 -2 19 1 4 3 -2 6 -13 5 -11 0 -14 -3 -6 -6z"/>
<path d="M593 2345 c0 -7 6 -11 14 -8 7 3 13 6 13 8 0 2 -6 5 -13 8 -8 3 -14
-1 -14 -8z"/>
<path d="M837 1976 c-4 -10 -1 -13 8 -9 8 3 12 9 9 14 -7 12 -11 11 -17 -5z"/>
<path d="M870 1926 c0 -2 7 -7 16 -10 8 -3 12 -2 9 4 -6 10 -25 14 -25 6z"/>
<path d="M8116 1753 c-6 -14 -5 -15 5 -6 7 7 10 15 7 18 -3 3 -9 -2 -12 -12z"/>
<path d="M8066 1695 c-9 -26 -7 -32 5 -12 6 10 9 21 6 23 -2 3 -7 -2 -11 -11z"/>
<path d="M7651 1256 c-9 -11 -9 -16 0 -22 7 -4 9 -3 5 4 -3 5 0 12 6 15 7 2
10 7 7 11 -3 4 -12 0 -18 -8z"/>
<path d="M1583 1145 c0 -8 4 -12 9 -9 5 3 6 10 3 15 -9 13 -12 11 -12 -6z"/>
<path d="M1702 1046 c7 -8 15 -12 17 -11 5 6 -10 25 -20 25 -5 0 -4 -6 3 -14z"/>
<path d="M1770 981 c0 -6 4 -13 10 -16 6 -3 7 1 4 9 -7 18 -14 21 -14 7z"/>
<path d="M2050 781 c0 -6 4 -13 10 -16 6 -3 7 1 4 9 -7 18 -14 21 -14 7z"/>
<path d="M2138 733 c6 -2 9 -10 6 -15 -4 -7 -2 -8 5 -4 13 9 5 26 -12 25 -9 0
-8 -2 1 -6z"/>
<path d="M2423 565 c0 -8 4 -12 9 -9 5 3 6 10 3 15 -9 13 -12 11 -12 -6z"/>
<path d="M6633 525 c0 -8 4 -12 9 -9 5 3 6 10 3 15 -9 13 -12 11 -12 -6z"/>
<path d="M6565 510 c-3 -5 -1 -10 4 -10 6 0 11 5 11 10 0 6 -2 10 -4 10 -3 0
-8 -4 -11 -10z"/>
<path d="M2560 508 c0 -2 9 -11 20 -21 11 -9 20 -13 20 -7 0 5 -9 14 -20 20
-11 6 -20 9 -20 8z"/>
<path d="M2820 380 c0 -5 5 -10 11 -10 5 0 7 5 4 10 -3 6 -8 10 -11 10 -2 0
-4 -4 -4 -10z"/>
<path d="M3182 248 c-8 -10 -5 -13 13 -13 18 0 21 3 13 13 -6 6 -12 12 -13 12
-1 0 -7 -6 -13 -12z"/>
<path d="M3416 193 c-14 -14 -5 -24 15 -18 16 5 19 4 14 -5 -6 -9 -4 -11 5 -5
7 4 16 2 21 -6 5 -8 9 -9 9 -3 0 20 -51 49 -64 37z"/>
<path d="M3557 143 c3 -7 6 -13 8 -13 2 0 5 6 8 13 3 8 -1 14 -8 14 -7 0 -11
-6 -8 -14z"/>
<path d="M4949 43 c-12 -16 -12 -17 2 -6 9 7 20 9 24 5 5 -4 5 -1 1 6 -9 16
-11 15 -27 -5z"/>
</g>
</svg>
